  0
SECTION
  2
BLOCKS
  0
ENDSEC
  0
SECTION
  2
ENTITIES
  0
LINE
  8
0
 10
13
 20
23
 11
-13
 21
23
  0
LINE
  8
0
 10
-13
 20
23
 11
-13
 21
-23
  0
LINE
  8
0
 10
-13
 20
-23
 11
13
 21
-23
  0
LINE
  8
0
 10
13
 20
-23
 11
13
 21
23
  0
LINE
  8
0
 10
-0.0973206
 20
11.153
 11
-0.19426
 21
11.1622
  0
LINE
  8
0
 10
-0.19426
 20
11.1622
 11
-0.290436
 21
11.1774
  0
LINE
  8
0
 10
-0.290436
 20
11.1774
 11
-0.385468
 21
11.1987
  0
LINE
  8
0
 10
-0.385468
 20
11.1987
 11
-0.478973
 21
11.2259
  0
LINE
  8
0
 10
-0.478973
 20
11.2259
 11
-0.570587
 21
11.2588
  0
LINE
  8
0
 10
-0.570587
 20
11.2588
 11
-0.659958
 21
11.2975
  0
LINE
  8
0
 10
-0.659958
 20
11.2975
 11
-0.746704
 21
11.3417
  0
LINE
  8
0
 10
-0.746704
 20
11.3417
 11
-0.830521
 21
11.3913
  0
LINE
  8
0
 10
-0.830521
 20
11.3913
 11
-0.911057
 21
11.446
  0
LINE
  8
0
 10
-0.911057
 20
11.446
 11
-0.988007
 21
11.5057
  0
LINE
  8
0
 10
-0.988007
 20
11.5057
 11
-1.06104
 21
11.5701
  0
LINE
  8
0
 10
-1.06104
 20
11.5701
 11
-1.1299
 21
11.6389
  0
LINE
  8
0
 10
-1.1299
 20
11.6389
 11
-1.19429
 21
11.712
  0
LINE
  8
0
 10
-1.19429
 20
11.712
 11
-1.25397
 21
11.7889
  0
LINE
  8
0
 10
-1.25397
 20
11.7889
 11
-1.3087
 21
11.8695
  0
LINE
  8
0
 10
-1.3087
 20
11.8695
 11
-1.35826
 21
11.9533
  0
LINE
  8
0
 10
-1.35826
 20
11.9533
 11
-1.40248
 21
12.04
  0
LINE
  8
0
 10
-1.40248
 20
12.04
 11
-1.44115
 21
12.1294
  0
LINE
  8
0
 10
-1.44115
 20
12.1294
 11
-1.47414
 21
12.221
  0
LINE
  8
0
 10
-1.47414
 20
12.221
 11
-1.5013
 21
12.3145
  0
LINE
  8
0
 10
-1.5013
 20
12.3145
 11
-1.52254
 21
12.4095
  0
LINE
  8
0
 10
-1.52254
 20
12.4095
 11
-1.53777
 21
12.5057
  0
LINE
  8
0
 10
-1.53777
 20
12.5057
 11
-1.54694
 21
12.6027
  0
LINE
  8
0
 10
-1.54694
 20
12.6027
 11
-1.54999
 21
12.7
  0
LINE
  8
0
 10
-1.54999
 20
12.7
 11
-1.54694
 21
12.7973
  0
LINE
  8
0
 10
-1.54694
 20
12.7973
 11
-1.53777
 21
12.8943
  0
LINE
  8
0
 10
-1.53777
 20
12.8943
 11
-1.52254
 21
12.9904
  0
LINE
  8
0
 10
-1.52254
 20
12.9904
 11
-1.5013
 21
13.0855
  0
LINE
  8
0
 10
-1.5013
 20
13.0855
 11
-1.47414
 21
13.179
  0
LINE
  8
0
 10
-1.47414
 20
13.179
 11
-1.44115
 21
13.2706
  0
LINE
  8
0
 10
-1.44115
 20
13.2706
 11
-1.40248
 21
13.36
  0
LINE
  8
0
 10
-1.40248
 20
13.36
 11
-1.35826
 21
13.4467
  0
LINE
  8
0
 10
-1.35826
 20
13.4467
 11
-1.3087
 21
13.5305
  0
LINE
  8
0
 10
-1.3087
 20
13.5305
 11
-1.25397
 21
13.6111
  0
LINE
  8
0
 10
-1.25397
 20
13.6111
 11
-1.19429
 21
13.688
  0
LINE
  8
0
 10
-1.19429
 20
13.688
 11
-1.1299
 21
13.761
  0
LINE
  8
0
 10
-1.1299
 20
13.761
 11
-1.06104
 21
13.8299
  0
LINE
  8
0
 10
-1.06104
 20
13.8299
 11
-0.988007
 21
13.8943
  0
LINE
  8
0
 10
-0.988007
 20
13.8943
 11
-0.911057
 21
13.954
  0
LINE
  8
0
 10
-0.911057
 20
13.954
 11
-0.830521
 21
14.0087
  0
LINE
  8
0
 10
-0.830521
 20
14.0087
 11
-0.746704
 21
14.0583
  0
LINE
  8
0
 10
-0.746704
 20
14.0583
 11
-0.659958
 21
14.1025
  0
LINE
  8
0
 10
-0.659958
 20
14.1025
 11
-0.570587
 21
14.1411
  0
LINE
  8
0
 10
-0.570587
 20
14.1411
 11
-0.478973
 21
14.1741
  0
LINE
  8
0
 10
-0.478973
 20
14.1741
 11
-0.385468
 21
14.2013
  0
LINE
  8
0
 10
-0.385468
 20
14.2013
 11
-0.290436
 21
14.2225
  0
LINE
  8
0
 10
-0.290436
 20
14.2225
 11
-0.19426
 21
14.2378
  0
LINE
  8
0
 10
-0.19426
 20
14.2378
 11
-0.0973206
 21
14.2469
  0
LINE
  8
0
 10
-0.0973206
 20
14.2469
 11
0
 21
14.25
  0
LINE
  8
0
 10
0
 20
14.25
 11
0.0973206
 21
14.2469
  0
LINE
  8
0
 10
0.0973206
 20
14.2469
 11
0.19426
 21
14.2378
  0
LINE
  8
0
 10
0.19426
 20
14.2378
 11
0.290436
 21
14.2225
  0
LINE
  8
0
 10
0.290436
 20
14.2225
 11
0.385468
 21
14.2013
  0
LINE
  8
0
 10
0.385468
 20
14.2013
 11
0.478973
 21
14.1741
  0
LINE
  8
0
 10
0.478973
 20
14.1741
 11
0.570587
 21
14.1411
  0
LINE
  8
0
 10
0.570587
 20
14.1411
 11
0.659958
 21
14.1025
  0
LINE
  8
0
 10
0.659958
 20
14.1025
 11
0.746704
 21
14.0583
  0
LINE
  8
0
 10
0.746704
 20
14.0583
 11
0.830521
 21
14.0087
  0
LINE
  8
0
 10
0.830521
 20
14.0087
 11
0.911057
 21
13.954
  0
LINE
  8
0
 10
0.911057
 20
13.954
 11
0.988007
 21
13.8943
  0
LINE
  8
0
 10
0.988007
 20
13.8943
 11
1.06104
 21
13.8299
  0
LINE
  8
0
 10
1.06104
 20
13.8299
 11
1.1299
 21
13.761
  0
LINE
  8
0
 10
1.1299
 20
13.761
 11
1.19429
 21
13.688
  0
LINE
  8
0
 10
1.19429
 20
13.688
 11
1.25397
 21
13.6111
  0
LINE
  8
0
 10
1.25397
 20
13.6111
 11
1.3087
 21
13.5305
  0
LINE
  8
0
 10
1.3087
 20
13.5305
 11
1.35826
 21
13.4467
  0
LINE
  8
0
 10
1.35826
 20
13.4467
 11
1.40248
 21
13.36
  0
LINE
  8
0
 10
1.40248
 20
13.36
 11
1.44115
 21
13.2706
  0
LINE
  8
0
 10
1.44115
 20
13.2706
 11
1.47414
 21
13.179
  0
LINE
  8
0
 10
1.47414
 20
13.179
 11
1.5013
 21
13.0855
  0
LINE
  8
0
 10
1.5013
 20
13.0855
 11
1.52254
 21
12.9904
  0
LINE
  8
0
 10
1.52254
 20
12.9904
 11
1.53777
 21
12.8943
  0
LINE
  8
0
 10
1.53777
 20
12.8943
 11
1.54694
 21
12.7973
  0
LINE
  8
0
 10
1.54694
 20
12.7973
 11
1.54999
 21
12.7
  0
LINE
  8
0
 10
1.54999
 20
12.7
 11
1.54694
 21
12.6027
  0
LINE
  8
0
 10
1.54694
 20
12.6027
 11
1.53777
 21
12.5057
  0
LINE
  8
0
 10
1.53777
 20
12.5057
 11
1.52254
 21
12.4095
  0
LINE
  8
0
 10
1.52254
 20
12.4095
 11
1.5013
 21
12.3145
  0
LINE
  8
0
 10
1.5013
 20
12.3145
 11
1.47414
 21
12.221
  0
LINE
  8
0
 10
1.47414
 20
12.221
 11
1.44115
 21
12.1294
  0
LINE
  8
0
 10
1.44115
 20
12.1294
 11
1.40248
 21
12.04
  0
LINE
  8
0
 10
1.40248
 20
12.04
 11
1.35826
 21
11.9533
  0
LINE
  8
0
 10
1.35826
 20
11.9533
 11
1.3087
 21
11.8695
  0
LINE
  8
0
 10
1.3087
 20
11.8695
 11
1.25397
 21
11.7889
  0
LINE
  8
0
 10
1.25397
 20
11.7889
 11
1.19429
 21
11.712
  0
LINE
  8
0
 10
1.19429
 20
11.712
 11
1.1299
 21
11.6389
  0
LINE
  8
0
 10
1.1299
 20
11.6389
 11
1.06104
 21
11.5701
  0
LINE
  8
0
 10
1.06104
 20
11.5701
 11
0.988007
 21
11.5057
  0
LINE
  8
0
 10
0.988007
 20
11.5057
 11
0.911057
 21
11.446
  0
LINE
  8
0
 10
0.911057
 20
11.446
 11
0.830521
 21
11.3913
  0
LINE
  8
0
 10
0.830521
 20
11.3913
 11
0.746704
 21
11.3417
  0
LINE
  8
0
 10
0.746704
 20
11.3417
 11
0.659958
 21
11.2975
  0
LINE
  8
0
 10
0.659958
 20
11.2975
 11
0.570587
 21
11.2588
  0
LINE
  8
0
 10
0.570587
 20
11.2588
 11
0.478973
 21
11.2259
  0
LINE
  8
0
 10
0.478973
 20
11.2259
 11
0.385468
 21
11.1987
  0
LINE
  8
0
 10
0.385468
 20
11.1987
 11
0.290436
 21
11.1774
  0
LINE
  8
0
 10
0.290436
 20
11.1774
 11
0.19426
 21
11.1622
  0
LINE
  8
0
 10
0.19426
 20
11.1622
 11
0.0973206
 21
11.153
  0
LINE
  8
0
 10
0.0973206
 20
11.153
 11
0
 21
11.15
  0
LINE
  8
0
 10
0
 20
11.15
 11
-0.0973206
 21
11.153
  0
LINE
  8
0
 10
6.25267
 20
0.993057
 11
6.15573
 21
1.00221
  0
LINE
  8
0
 10
6.15573
 20
1.00221
 11
6.05956
 21
1.01744
  0
LINE
  8
0
 10
6.05956
 20
1.01744
 11
5.96452
 21
1.03868
  0
LINE
  8
0
 10
5.96452
 20
1.03868
 11
5.87102
 21
1.06586
  0
LINE
  8
0
 10
5.87102
 20
1.06586
 11
5.7794
 21
1.09885
  0
LINE
  8
0
 10
5.7794
 20
1.09885
 11
5.69003
 21
1.13751
  0
LINE
  8
0
 10
5.69003
 20
1.13751
 11
5.60327
 21
1.18172
  0
LINE
  8
0
 10
5.60327
 20
1.18172
 11
5.51945
 21
1.23128
  0
LINE
  8
0
 10
5.51945
 20
1.23128
 11
5.43892
 21
1.28601
  0
LINE
  8
0
 10
5.43892
 20
1.28601
 11
5.36198
 21
1.3457
  0
LINE
  8
0
 10
5.36198
 20
1.3457
 11
5.28894
 21
1.4101
  0
LINE
  8
0
 10
5.28894
 20
1.4101
 11
5.22009
 21
1.47894
  0
LINE
  8
0
 10
5.22009
 20
1.47894
 11
5.1557
 21
1.55199
  0
LINE
  8
0
 10
5.1557
 20
1.55199
 11
5.09602
 21
1.62892
  0
LINE
  8
0
 10
5.09602
 20
1.62892
 11
5.04129
 21
1.70946
  0
LINE
  8
0
 10
5.04129
 20
1.70946
 11
4.99171
 21
1.79327
  0
LINE
  8
0
 10
4.99171
 20
1.79327
 11
4.94751
 21
1.88004
  0
LINE
  8
0
 10
4.94751
 20
1.88004
 11
4.90884
 21
1.96941
  0
LINE
  8
0
 10
4.90884
 20
1.96941
 11
4.87585
 21
2.06102
  0
LINE
  8
0
 10
4.87585
 20
2.06102
 11
4.84869
 21
2.15453
  0
LINE
  8
0
 10
4.84869
 20
2.15453
 11
4.82745
 21
2.24956
  0
LINE
  8
0
 10
4.82745
 20
2.24956
 11
4.81221
 21
2.34572
  0
LINE
  8
0
 10
4.81221
 20
2.34572
 11
4.80305
 21
2.44267
  0
LINE
  8
0
 10
4.80305
 20
2.44267
 11
4.79999
 21
2.53999
  0
LINE
  8
0
 10
4.79999
 20
2.53999
 11
4.80305
 21
2.63731
  0
LINE
  8
0
 10
4.80305
 20
2.63731
 11
4.81221
 21
2.73425
  0
LINE
  8
0
 10
4.81221
 20
2.73425
 11
4.82745
 21
2.83043
  0
LINE
  8
0
 10
4.82745
 20
2.83043
 11
4.84869
 21
2.92546
  0
LINE
  8
0
 10
4.84869
 20
2.92546
 11
4.87585
 21
3.01897
  0
LINE
  8
0
 10
4.87585
 20
3.01897
 11
4.90884
 21
3.11058
  0
LINE
  8
0
 10
4.90884
 20
3.11058
 11
4.94751
 21
3.19995
  0
LINE
  8
0
 10
4.94751
 20
3.19995
 11
4.99171
 21
3.28671
  0
LINE
  8
0
 10
4.99171
 20
3.28671
 11
5.04129
 21
3.37053
  0
LINE
  8
0
 10
5.04129
 20
3.37053
 11
5.09602
 21
3.45107
  0
LINE
  8
0
 10
5.09602
 20
3.45107
 11
5.1557
 21
3.528
  0
LINE
  8
0
 10
5.1557
 20
3.528
 11
5.22009
 21
3.60104
  0
LINE
  8
0
 10
5.22009
 20
3.60104
 11
5.28894
 21
3.66989
  0
LINE
  8
0
 10
5.28894
 20
3.66989
 11
5.36198
 21
3.73428
  0
LINE
  8
0
 10
5.36198
 20
3.73428
 11
5.43892
 21
3.79398
  0
LINE
  8
0
 10
5.43892
 20
3.79398
 11
5.51945
 21
3.84869
  0
LINE
  8
0
 10
5.51945
 20
3.84869
 11
5.60327
 21
3.89827
  0
LINE
  8
0
 10
5.60327
 20
3.89827
 11
5.69003
 21
3.94247
  0
LINE
  8
0
 10
5.69003
 20
3.94247
 11
5.7794
 21
3.98114
  0
LINE
  8
0
 10
5.7794
 20
3.98114
 11
5.87102
 21
4.01413
  0
LINE
  8
0
 10
5.87102
 20
4.01413
 11
5.96452
 21
4.04129
  0
LINE
  8
0
 10
5.96452
 20
4.04129
 11
6.05956
 21
4.06253
  0
LINE
  8
0
 10
6.05956
 20
4.06253
 11
6.15573
 21
4.07777
  0
LINE
  8
0
 10
6.15573
 20
4.07777
 11
6.25267
 21
4.08693
  0
LINE
  8
0
 10
6.25267
 20
4.08693
 11
6.34999
 21
4.09
  0
LINE
  8
0
 10
6.34999
 20
4.09
 11
6.44731
 21
4.08693
  0
LINE
  8
0
 10
6.44731
 20
4.08693
 11
6.54427
 21
4.07777
  0
LINE
  8
0
 10
6.54427
 20
4.07777
 11
6.64043
 21
4.06253
  0
LINE
  8
0
 10
6.64043
 20
4.06253
 11
6.73546
 21
4.04129
  0
LINE
  8
0
 10
6.73546
 20
4.04129
 11
6.82896
 21
4.01413
  0
LINE
  8
0
 10
6.82896
 20
4.01413
 11
6.92058
 21
3.98114
  0
LINE
  8
0
 10
6.92058
 20
3.98114
 11
7.00995
 21
3.94247
  0
LINE
  8
0
 10
7.00995
 20
3.94247
 11
7.09671
 21
3.89827
  0
LINE
  8
0
 10
7.09671
 20
3.89827
 11
7.18053
 21
3.84869
  0
LINE
  8
0
 10
7.18053
 20
3.84869
 11
7.26106
 21
3.79398
  0
LINE
  8
0
 10
7.26106
 20
3.79398
 11
7.338
 21
3.73428
  0
LINE
  8
0
 10
7.338
 20
3.73428
 11
7.41104
 21
3.66989
  0
LINE
  8
0
 10
7.41104
 20
3.66989
 11
7.47989
 21
3.60104
  0
LINE
  8
0
 10
7.47989
 20
3.60104
 11
7.54428
 21
3.528
  0
LINE
  8
0
 10
7.54428
 20
3.528
 11
7.60397
 21
3.45107
  0
LINE
  8
0
 10
7.60397
 20
3.45107
 11
7.65871
 21
3.37053
  0
LINE
  8
0
 10
7.65871
 20
3.37053
 11
7.70827
 21
3.28671
  0
LINE
  8
0
 10
7.70827
 20
3.28671
 11
7.75247
 21
3.19995
  0
LINE
  8
0
 10
7.75247
 20
3.19995
 11
7.79115
 21
3.11058
  0
LINE
  8
0
 10
7.79115
 20
3.11058
 11
7.82413
 21
3.01897
  0
LINE
  8
0
 10
7.82413
 20
3.01897
 11
7.8513
 21
2.92546
  0
LINE
  8
0
 10
7.8513
 20
2.92546
 11
7.87254
 21
2.83043
  0
LINE
  8
0
 10
7.87254
 20
2.83043
 11
7.88777
 21
2.73425
  0
LINE
  8
0
 10
7.88777
 20
2.73425
 11
7.89693
 21
2.63731
  0
LINE
  8
0
 10
7.89693
 20
2.63731
 11
7.89999
 21
2.53999
  0
LINE
  8
0
 10
7.89999
 20
2.53999
 11
7.89693
 21
2.44267
  0
LINE
  8
0
 10
7.89693
 20
2.44267
 11
7.88777
 21
2.34572
  0
LINE
  8
0
 10
7.88777
 20
2.34572
 11
7.87254
 21
2.24956
  0
LINE
  8
0
 10
7.87254
 20
2.24956
 11
7.8513
 21
2.15453
  0
LINE
  8
0
 10
7.8513
 20
2.15453
 11
7.82413
 21
2.06102
  0
LINE
  8
0
 10
7.82413
 20
2.06102
 11
7.79115
 21
1.96941
  0
LINE
  8
0
 10
7.79115
 20
1.96941
 11
7.75247
 21
1.88004
  0
LINE
  8
0
 10
7.75247
 20
1.88004
 11
7.70827
 21
1.79327
  0
LINE
  8
0
 10
7.70827
 20
1.79327
 11
7.65871
 21
1.70946
  0
LINE
  8
0
 10
7.65871
 20
1.70946
 11
7.60397
 21
1.62892
  0
LINE
  8
0
 10
7.60397
 20
1.62892
 11
7.54428
 21
1.55199
  0
LINE
  8
0
 10
7.54428
 20
1.55199
 11
7.47989
 21
1.47894
  0
LINE
  8
0
 10
7.47989
 20
1.47894
 11
7.41104
 21
1.4101
  0
LINE
  8
0
 10
7.41104
 20
1.4101
 11
7.338
 21
1.3457
  0
LINE
  8
0
 10
7.338
 20
1.3457
 11
7.26106
 21
1.28601
  0
LINE
  8
0
 10
7.26106
 20
1.28601
 11
7.18053
 21
1.23128
  0
LINE
  8
0
 10
7.18053
 20
1.23128
 11
7.09671
 21
1.18172
  0
LINE
  8
0
 10
7.09671
 20
1.18172
 11
7.00995
 21
1.13751
  0
LINE
  8
0
 10
7.00995
 20
1.13751
 11
6.92058
 21
1.09885
  0
LINE
  8
0
 10
6.92058
 20
1.09885
 11
6.82896
 21
1.06586
  0
LINE
  8
0
 10
6.82896
 20
1.06586
 11
6.73546
 21
1.03868
  0
LINE
  8
0
 10
6.73546
 20
1.03868
 11
6.64043
 21
1.01744
  0
LINE
  8
0
 10
6.64043
 20
1.01744
 11
6.54427
 21
1.00221
  0
LINE
  8
0
 10
6.54427
 20
1.00221
 11
6.44731
 21
0.993057
  0
LINE
  8
0
 10
6.44731
 20
0.993057
 11
6.34999
 21
0.98999
  0
LINE
  8
0
 10
6.34999
 20
0.98999
 11
6.25267
 21
0.993057
  0
LINE
  8
0
 10
-0.119293
 20
-1.89624
 11
-0.238129
 21
-1.88501
  0
LINE
  8
0
 10
-0.238129
 20
-1.88501
 11
-0.356018
 21
-1.86633
  0
LINE
  8
0
 10
-0.356018
 20
-1.86633
 11
-0.472504
 21
-1.8403
  0
LINE
  8
0
 10
-0.472504
 20
-1.8403
 11
-0.587128
 21
-1.80701
  0
LINE
  8
0
 10
-0.587128
 20
-1.80701
 11
-0.699432
 21
-1.76657
  0
LINE
  8
0
 10
-0.699432
 20
-1.76657
 11
-0.808975
 21
-1.71916
  0
LINE
  8
0
 10
-0.808975
 20
-1.71916
 11
-0.915329
 21
-1.66498
  0
LINE
  8
0
 10
-0.915329
 20
-1.66498
 11
-1.01807
 21
-1.60422
  0
LINE
  8
0
 10
-1.01807
 20
-1.60422
 11
-1.11679
 21
-1.53712
  0
LINE
  8
0
 10
-1.11679
 20
-1.53712
 11
-1.21111
 21
-1.46397
  0
LINE
  8
0
 10
-1.21111
 20
-1.46397
 11
-1.30063
 21
-1.38504
  0
LINE
  8
0
 10
-1.30063
 20
-1.38504
 11
-1.38504
 21
-1.30063
  0
LINE
  8
0
 10
-1.38504
 20
-1.30063
 11
-1.46397
 21
-1.21111
  0
LINE
  8
0
 10
-1.46397
 20
-1.21111
 11
-1.53712
 21
-1.11679
  0
LINE
  8
0
 10
-1.53712
 20
-1.11679
 11
-1.60422
 21
-1.01807
  0
LINE
  8
0
 10
-1.60422
 20
-1.01807
 11
-1.66498
 21
-0.915329
  0
LINE
  8
0
 10
-1.66498
 20
-0.915329
 11
-1.71916
 21
-0.808975
  0
LINE
  8
0
 10
-1.71916
 20
-0.808975
 11
-1.76657
 21
-0.699432
  0
LINE
  8
0
 10
-1.76657
 20
-0.699432
 11
-1.80701
 21
-0.587128
  0
LINE
  8
0
 10
-1.80701
 20
-0.587128
 11
-1.8403
 21
-0.472504
  0
LINE
  8
0
 10
-1.8403
 20
-0.472504
 11
-1.86633
 21
-0.356018
  0
LINE
  8
0
 10
-1.86633
 20
-0.356018
 11
-1.88501
 21
-0.238129
  0
LINE
  8
0
 10
-1.88501
 20
-0.238129
 11
-1.89624
 21
-0.119293
  0
LINE
  8
0
 10
-1.89624
 20
-0.119293
 11
-1.89999
 21
0
  0
LINE
  8
0
 10
-1.89999
 20
0
 11
-1.89624
 21
0.119293
  0
LINE
  8
0
 10
-1.89624
 20
0.119293
 11
-1.88501
 21
0.238129
  0
LINE
  8
0
 10
-1.88501
 20
0.238129
 11
-1.86633
 21
0.356018
  0
LINE
  8
0
 10
-1.86633
 20
0.356018
 11
-1.8403
 21
0.472504
  0
LINE
  8
0
 10
-1.8403
 20
0.472504
 11
-1.80701
 21
0.587128
  0
LINE
  8
0
 10
-1.80701
 20
0.587128
 11
-1.76657
 21
0.699432
  0
LINE
  8
0
 10
-1.76657
 20
0.699432
 11
-1.71916
 21
0.808975
  0
LINE
  8
0
 10
-1.71916
 20
0.808975
 11
-1.66498
 21
0.915329
  0
LINE
  8
0
 10
-1.66498
 20
0.915329
 11
-1.60422
 21
1.01807
  0
LINE
  8
0
 10
-1.60422
 20
1.01807
 11
-1.53712
 21
1.11679
  0
LINE
  8
0
 10
-1.53712
 20
1.11679
 11
-1.46397
 21
1.21111
  0
LINE
  8
0
 10
-1.46397
 20
1.21111
 11
-1.38504
 21
1.30063
  0
LINE
  8
0
 10
-1.38504
 20
1.30063
 11
-1.30063
 21
1.38504
  0
LINE
  8
0
 10
-1.30063
 20
1.38504
 11
-1.21111
 21
1.46397
  0
LINE
  8
0
 10
-1.21111
 20
1.46397
 11
-1.11679
 21
1.53712
  0
LINE
  8
0
 10
-1.11679
 20
1.53712
 11
-1.01807
 21
1.60422
  0
LINE
  8
0
 10
-1.01807
 20
1.60422
 11
-0.915329
 21
1.66498
  0
LINE
  8
0
 10
-0.915329
 20
1.66498
 11
-0.808975
 21
1.71916
  0
LINE
  8
0
 10
-0.808975
 20
1.71916
 11
-0.699432
 21
1.76657
  0
LINE
  8
0
 10
-0.699432
 20
1.76657
 11
-0.587128
 21
1.80701
  0
LINE
  8
0
 10
-0.587128
 20
1.80701
 11
-0.472504
 21
1.8403
  0
LINE
  8
0
 10
-0.472504
 20
1.8403
 11
-0.356018
 21
1.86633
  0
LINE
  8
0
 10
-0.356018
 20
1.86633
 11
-0.238129
 21
1.88501
  0
LINE
  8
0
 10
-0.238129
 20
1.88501
 11
-0.119293
 21
1.89624
  0
LINE
  8
0
 10
-0.119293
 20
1.89624
 11
0
 21
1.89999
  0
LINE
  8
0
 10
0
 20
1.89999
 11
0.119293
 21
1.89624
  0
LINE
  8
0
 10
0.119293
 20
1.89624
 11
0.238129
 21
1.88501
  0
LINE
  8
0
 10
0.238129
 20
1.88501
 11
0.356018
 21
1.86633
  0
LINE
  8
0
 10
0.356018
 20
1.86633
 11
0.472504
 21
1.8403
  0
LINE
  8
0
 10
0.472504
 20
1.8403
 11
0.587128
 21
1.80701
  0
LINE
  8
0
 10
0.587128
 20
1.80701
 11
0.699432
 21
1.76657
  0
LINE
  8
0
 10
0.699432
 20
1.76657
 11
0.808975
 21
1.71916
  0
LINE
  8
0
 10
0.808975
 20
1.71916
 11
0.915329
 21
1.66498
  0
LINE
  8
0
 10
0.915329
 20
1.66498
 11
1.01807
 21
1.60422
  0
LINE
  8
0
 10
1.01807
 20
1.60422
 11
1.11679
 21
1.53712
  0
LINE
  8
0
 10
1.11679
 20
1.53712
 11
1.21111
 21
1.46397
  0
LINE
  8
0
 10
1.21111
 20
1.46397
 11
1.30063
 21
1.38504
  0
LINE
  8
0
 10
1.30063
 20
1.38504
 11
1.38504
 21
1.30063
  0
LINE
  8
0
 10
1.38504
 20
1.30063
 11
1.46397
 21
1.21111
  0
LINE
  8
0
 10
1.46397
 20
1.21111
 11
1.53712
 21
1.11679
  0
LINE
  8
0
 10
1.53712
 20
1.11679
 11
1.60422
 21
1.01807
  0
LINE
  8
0
 10
1.60422
 20
1.01807
 11
1.66498
 21
0.915329
  0
LINE
  8
0
 10
1.66498
 20
0.915329
 11
1.71916
 21
0.808975
  0
LINE
  8
0
 10
1.71916
 20
0.808975
 11
1.76657
 21
0.699432
  0
LINE
  8
0
 10
1.76657
 20
0.699432
 11
1.80701
 21
0.587128
  0
LINE
  8
0
 10
1.80701
 20
0.587128
 11
1.8403
 21
0.472504
  0
LINE
  8
0
 10
1.8403
 20
0.472504
 11
1.86633
 21
0.356018
  0
LINE
  8
0
 10
1.86633
 20
0.356018
 11
1.88501
 21
0.238129
  0
LINE
  8
0
 10
1.88501
 20
0.238129
 11
1.89624
 21
0.119293
  0
LINE
  8
0
 10
1.89624
 20
0.119293
 11
1.89999
 21
0
  0
LINE
  8
0
 10
1.89999
 20
0
 11
1.89624
 21
-0.119293
  0
LINE
  8
0
 10
1.89624
 20
-0.119293
 11
1.88501
 21
-0.238129
  0
LINE
  8
0
 10
1.88501
 20
-0.238129
 11
1.86633
 21
-0.356018
  0
LINE
  8
0
 10
1.86633
 20
-0.356018
 11
1.8403
 21
-0.472504
  0
LINE
  8
0
 10
1.8403
 20
-0.472504
 11
1.80701
 21
-0.587128
  0
LINE
  8
0
 10
1.80701
 20
-0.587128
 11
1.76657
 21
-0.699432
  0
LINE
  8
0
 10
1.76657
 20
-0.699432
 11
1.71916
 21
-0.808975
  0
LINE
  8
0
 10
1.71916
 20
-0.808975
 11
1.66498
 21
-0.915329
  0
LINE
  8
0
 10
1.66498
 20
-0.915329
 11
1.60422
 21
-1.01807
  0
LINE
  8
0
 10
1.60422
 20
-1.01807
 11
1.53712
 21
-1.11679
  0
LINE
  8
0
 10
1.53712
 20
-1.11679
 11
1.46397
 21
-1.21111
  0
LINE
  8
0
 10
1.46397
 20
-1.21111
 11
1.38504
 21
-1.30063
  0
LINE
  8
0
 10
1.38504
 20
-1.30063
 11
1.30063
 21
-1.38504
  0
LINE
  8
0
 10
1.30063
 20
-1.38504
 11
1.21111
 21
-1.46397
  0
LINE
  8
0
 10
1.21111
 20
-1.46397
 11
1.11679
 21
-1.53712
  0
LINE
  8
0
 10
1.11679
 20
-1.53712
 11
1.01807
 21
-1.60422
  0
LINE
  8
0
 10
1.01807
 20
-1.60422
 11
0.915329
 21
-1.66498
  0
LINE
  8
0
 10
0.915329
 20
-1.66498
 11
0.808975
 21
-1.71916
  0
LINE
  8
0
 10
0.808975
 20
-1.71916
 11
0.699432
 21
-1.76657
  0
LINE
  8
0
 10
0.699432
 20
-1.76657
 11
0.587128
 21
-1.80701
  0
LINE
  8
0
 10
0.587128
 20
-1.80701
 11
0.472504
 21
-1.8403
  0
LINE
  8
0
 10
0.472504
 20
-1.8403
 11
0.356018
 21
-1.86633
  0
LINE
  8
0
 10
0.356018
 20
-1.86633
 11
0.238129
 21
-1.88501
  0
LINE
  8
0
 10
0.238129
 20
-1.88501
 11
0.119293
 21
-1.89624
  0
LINE
  8
0
 10
0.119293
 20
-1.89624
 11
0
 21
-1.89999
  0
LINE
  8
0
 10
0
 20
-1.89999
 11
-0.119293
 21
-1.89624
  0
LINE
  8
0
 10
-0.0973206
 20
-14.2469
 11
-0.19426
 21
-14.2378
  0
LINE
  8
0
 10
-0.19426
 20
-14.2378
 11
-0.290436
 21
-14.2225
  0
LINE
  8
0
 10
-0.290436
 20
-14.2225
 11
-0.385468
 21
-14.2013
  0
LINE
  8
0
 10
-0.385468
 20
-14.2013
 11
-0.478973
 21
-14.1741
  0
LINE
  8
0
 10
-0.478973
 20
-14.1741
 11
-0.570587
 21
-14.1411
  0
LINE
  8
0
 10
-0.570587
 20
-14.1411
 11
-0.659958
 21
-14.1025
  0
LINE
  8
0
 10
-0.659958
 20
-14.1025
 11
-0.746704
 21
-14.0583
  0
LINE
  8
0
 10
-0.746704
 20
-14.0583
 11
-0.830521
 21
-14.0087
  0
LINE
  8
0
 10
-0.830521
 20
-14.0087
 11
-0.911057
 21
-13.954
  0
LINE
  8
0
 10
-0.911057
 20
-13.954
 11
-0.988007
 21
-13.8943
  0
LINE
  8
0
 10
-0.988007
 20
-13.8943
 11
-1.06104
 21
-13.8299
  0
LINE
  8
0
 10
-1.06104
 20
-13.8299
 11
-1.1299
 21
-13.761
  0
LINE
  8
0
 10
-1.1299
 20
-13.761
 11
-1.19429
 21
-13.688
  0
LINE
  8
0
 10
-1.19429
 20
-13.688
 11
-1.25397
 21
-13.6111
  0
LINE
  8
0
 10
-1.25397
 20
-13.6111
 11
-1.3087
 21
-13.5305
  0
LINE
  8
0
 10
-1.3087
 20
-13.5305
 11
-1.35826
 21
-13.4467
  0
LINE
  8
0
 10
-1.35826
 20
-13.4467
 11
-1.40248
 21
-13.36
  0
LINE
  8
0
 10
-1.40248
 20
-13.36
 11
-1.44115
 21
-13.2706
  0
LINE
  8
0
 10
-1.44115
 20
-13.2706
 11
-1.47414
 21
-13.179
  0
LINE
  8
0
 10
-1.47414
 20
-13.179
 11
-1.5013
 21
-13.0855
  0
LINE
  8
0
 10
-1.5013
 20
-13.0855
 11
-1.52254
 21
-12.9904
  0
LINE
  8
0
 10
-1.52254
 20
-12.9904
 11
-1.53777
 21
-12.8943
  0
LINE
  8
0
 10
-1.53777
 20
-12.8943
 11
-1.54694
 21
-12.7973
  0
LINE
  8
0
 10
-1.54694
 20
-12.7973
 11
-1.54999
 21
-12.7
  0
LINE
  8
0
 10
-1.54999
 20
-12.7
 11
-1.54694
 21
-12.6027
  0
LINE
  8
0
 10
-1.54694
 20
-12.6027
 11
-1.53777
 21
-12.5057
  0
LINE
  8
0
 10
-1.53777
 20
-12.5057
 11
-1.52254
 21
-12.4095
  0
LINE
  8
0
 10
-1.52254
 20
-12.4095
 11
-1.5013
 21
-12.3145
  0
LINE
  8
0
 10
-1.5013
 20
-12.3145
 11
-1.47414
 21
-12.221
  0
LINE
  8
0
 10
-1.47414
 20
-12.221
 11
-1.44115
 21
-12.1294
  0
LINE
  8
0
 10
-1.44115
 20
-12.1294
 11
-1.40248
 21
-12.04
  0
LINE
  8
0
 10
-1.40248
 20
-12.04
 11
-1.35826
 21
-11.9533
  0
LINE
  8
0
 10
-1.35826
 20
-11.9533
 11
-1.3087
 21
-11.8695
  0
LINE
  8
0
 10
-1.3087
 20
-11.8695
 11
-1.25397
 21
-11.7889
  0
LINE
  8
0
 10
-1.25397
 20
-11.7889
 11
-1.19429
 21
-11.712
  0
LINE
  8
0
 10
-1.19429
 20
-11.712
 11
-1.1299
 21
-11.6389
  0
LINE
  8
0
 10
-1.1299
 20
-11.6389
 11
-1.06104
 21
-11.5701
  0
LINE
  8
0
 10
-1.06104
 20
-11.5701
 11
-0.988007
 21
-11.5057
  0
LINE
  8
0
 10
-0.988007
 20
-11.5057
 11
-0.911057
 21
-11.446
  0
LINE
  8
0
 10
-0.911057
 20
-11.446
 11
-0.830521
 21
-11.3913
  0
LINE
  8
0
 10
-0.830521
 20
-11.3913
 11
-0.746704
 21
-11.3417
  0
LINE
  8
0
 10
-0.746704
 20
-11.3417
 11
-0.659958
 21
-11.2975
  0
LINE
  8
0
 10
-0.659958
 20
-11.2975
 11
-0.570587
 21
-11.2588
  0
LINE
  8
0
 10
-0.570587
 20
-11.2588
 11
-0.478973
 21
-11.2259
  0
LINE
  8
0
 10
-0.478973
 20
-11.2259
 11
-0.385468
 21
-11.1987
  0
LINE
  8
0
 10
-0.385468
 20
-11.1987
 11
-0.290436
 21
-11.1774
  0
LINE
  8
0
 10
-0.290436
 20
-11.1774
 11
-0.19426
 21
-11.1622
  0
LINE
  8
0
 10
-0.19426
 20
-11.1622
 11
-0.0973206
 21
-11.153
  0
LINE
  8
0
 10
-0.0973206
 20
-11.153
 11
0
 21
-11.15
  0
LINE
  8
0
 10
0
 20
-11.15
 11
0.0973206
 21
-11.153
  0
LINE
  8
0
 10
0.0973206
 20
-11.153
 11
0.19426
 21
-11.1622
  0
LINE
  8
0
 10
0.19426
 20
-11.1622
 11
0.290436
 21
-11.1774
  0
LINE
  8
0
 10
0.290436
 20
-11.1774
 11
0.385468
 21
-11.1987
  0
LINE
  8
0
 10
0.385468
 20
-11.1987
 11
0.478973
 21
-11.2259
  0
LINE
  8
0
 10
0.478973
 20
-11.2259
 11
0.570587
 21
-11.2588
  0
LINE
  8
0
 10
0.570587
 20
-11.2588
 11
0.659958
 21
-11.2975
  0
LINE
  8
0
 10
0.659958
 20
-11.2975
 11
0.746704
 21
-11.3417
  0
LINE
  8
0
 10
0.746704
 20
-11.3417
 11
0.830521
 21
-11.3913
  0
LINE
  8
0
 10
0.830521
 20
-11.3913
 11
0.911057
 21
-11.446
  0
LINE
  8
0
 10
0.911057
 20
-11.446
 11
0.988007
 21
-11.5057
  0
LINE
  8
0
 10
0.988007
 20
-11.5057
 11
1.06104
 21
-11.5701
  0
LINE
  8
0
 10
1.06104
 20
-11.5701
 11
1.1299
 21
-11.6389
  0
LINE
  8
0
 10
1.1299
 20
-11.6389
 11
1.19429
 21
-11.712
  0
LINE
  8
0
 10
1.19429
 20
-11.712
 11
1.25397
 21
-11.7889
  0
LINE
  8
0
 10
1.25397
 20
-11.7889
 11
1.3087
 21
-11.8695
  0
LINE
  8
0
 10
1.3087
 20
-11.8695
 11
1.35826
 21
-11.9533
  0
LINE
  8
0
 10
1.35826
 20
-11.9533
 11
1.40248
 21
-12.04
  0
LINE
  8
0
 10
1.40248
 20
-12.04
 11
1.44115
 21
-12.1294
  0
LINE
  8
0
 10
1.44115
 20
-12.1294
 11
1.47414
 21
-12.221
  0
LINE
  8
0
 10
1.47414
 20
-12.221
 11
1.5013
 21
-12.3145
  0
LINE
  8
0
 10
1.5013
 20
-12.3145
 11
1.52254
 21
-12.4095
  0
LINE
  8
0
 10
1.52254
 20
-12.4095
 11
1.53777
 21
-12.5057
  0
LINE
  8
0
 10
1.53777
 20
-12.5057
 11
1.54694
 21
-12.6027
  0
LINE
  8
0
 10
1.54694
 20
-12.6027
 11
1.54999
 21
-12.7
  0
LINE
  8
0
 10
1.54999
 20
-12.7
 11
1.54694
 21
-12.7973
  0
LINE
  8
0
 10
1.54694
 20
-12.7973
 11
1.53777
 21
-12.8943
  0
LINE
  8
0
 10
1.53777
 20
-12.8943
 11
1.52254
 21
-12.9904
  0
LINE
  8
0
 10
1.52254
 20
-12.9904
 11
1.5013
 21
-13.0855
  0
LINE
  8
0
 10
1.5013
 20
-13.0855
 11
1.47414
 21
-13.179
  0
LINE
  8
0
 10
1.47414
 20
-13.179
 11
1.44115
 21
-13.2706
  0
LINE
  8
0
 10
1.44115
 20
-13.2706
 11
1.40248
 21
-13.36
  0
LINE
  8
0
 10
1.40248
 20
-13.36
 11
1.35826
 21
-13.4467
  0
LINE
  8
0
 10
1.35826
 20
-13.4467
 11
1.3087
 21
-13.5305
  0
LINE
  8
0
 10
1.3087
 20
-13.5305
 11
1.25397
 21
-13.6111
  0
LINE
  8
0
 10
1.25397
 20
-13.6111
 11
1.19429
 21
-13.688
  0
LINE
  8
0
 10
1.19429
 20
-13.688
 11
1.1299
 21
-13.761
  0
LINE
  8
0
 10
1.1299
 20
-13.761
 11
1.06104
 21
-13.8299
  0
LINE
  8
0
 10
1.06104
 20
-13.8299
 11
0.988007
 21
-13.8943
  0
LINE
  8
0
 10
0.988007
 20
-13.8943
 11
0.911057
 21
-13.954
  0
LINE
  8
0
 10
0.911057
 20
-13.954
 11
0.830521
 21
-14.0087
  0
LINE
  8
0
 10
0.830521
 20
-14.0087
 11
0.746704
 21
-14.0583
  0
LINE
  8
0
 10
0.746704
 20
-14.0583
 11
0.659958
 21
-14.1025
  0
LINE
  8
0
 10
0.659958
 20
-14.1025
 11
0.570587
 21
-14.1411
  0
LINE
  8
0
 10
0.570587
 20
-14.1411
 11
0.478973
 21
-14.1741
  0
LINE
  8
0
 10
0.478973
 20
-14.1741
 11
0.385468
 21
-14.2013
  0
LINE
  8
0
 10
0.385468
 20
-14.2013
 11
0.290436
 21
-14.2225
  0
LINE
  8
0
 10
0.290436
 20
-14.2225
 11
0.19426
 21
-14.2378
  0
LINE
  8
0
 10
0.19426
 20
-14.2378
 11
0.0973206
 21
-14.2469
  0
LINE
  8
0
 10
0.0973206
 20
-14.2469
 11
0
 21
-14.25
  0
LINE
  8
0
 10
0
 20
-14.25
 11
-0.0973206
 21
-14.2469
  0
ENDSEC
  0
SECTION
  2
OBJECTS
  0
DICTIONARY
  0
ENDSEC
  0
EOF
