  0
SECTION
  2
BLOCKS
  0
ENDSEC
  0
SECTION
  2
ENTITIES
  0
LINE
  8
0
 10
13
 20
23
 11
-13
 21
23
  0
LINE
  8
0
 10
-13
 20
23
 11
-13
 21
-23
  0
LINE
  8
0
 10
-13
 20
-23
 11
13
 21
-23
  0
LINE
  8
0
 10
13
 20
-23
 11
13
 21
23
  0
LINE
  8
0
 10
-0.0973206
 20
11.153
 11
-0.19426
 21
11.1622
  0
LINE
  8
0
 10
-0.19426
 20
11.1622
 11
-0.290436
 21
11.1774
  0
LINE
  8
0
 10
-0.290436
 20
11.1774
 11
-0.385468
 21
11.1987
  0
LINE
  8
0
 10
-0.385468
 20
11.1987
 11
-0.478973
 21
11.2259
  0
LINE
  8
0
 10
-0.478973
 20
11.2259
 11
-0.570587
 21
11.2588
  0
LINE
  8
0
 10
-0.570587
 20
11.2588
 11
-0.659958
 21
11.2975
  0
LINE
  8
0
 10
-0.659958
 20
11.2975
 11
-0.746704
 21
11.3417
  0
LINE
  8
0
 10
-0.746704
 20
11.3417
 11
-0.830521
 21
11.3913
  0
LINE
  8
0
 10
-0.830521
 20
11.3913
 11
-0.911057
 21
11.446
  0
LINE
  8
0
 10
-0.911057
 20
11.446
 11
-0.988007
 21
11.5057
  0
LINE
  8
0
 10
-0.988007
 20
11.5057
 11
-1.06104
 21
11.5701
  0
LINE
  8
0
 10
-1.06104
 20
11.5701
 11
-1.1299
 21
11.6389
  0
LINE
  8
0
 10
-1.1299
 20
11.6389
 11
-1.19429
 21
11.712
  0
LINE
  8
0
 10
-1.19429
 20
11.712
 11
-1.25397
 21
11.7889
  0
LINE
  8
0
 10
-1.25397
 20
11.7889
 11
-1.3087
 21
11.8695
  0
LINE
  8
0
 10
-1.3087
 20
11.8695
 11
-1.35826
 21
11.9533
  0
LINE
  8
0
 10
-1.35826
 20
11.9533
 11
-1.40248
 21
12.04
  0
LINE
  8
0
 10
-1.40248
 20
12.04
 11
-1.44115
 21
12.1294
  0
LINE
  8
0
 10
-1.44115
 20
12.1294
 11
-1.47414
 21
12.221
  0
LINE
  8
0
 10
-1.47414
 20
12.221
 11
-1.5013
 21
12.3145
  0
LINE
  8
0
 10
-1.5013
 20
12.3145
 11
-1.52254
 21
12.4095
  0
LINE
  8
0
 10
-1.52254
 20
12.4095
 11
-1.53777
 21
12.5057
  0
LINE
  8
0
 10
-1.53777
 20
12.5057
 11
-1.54694
 21
12.6027
  0
LINE
  8
0
 10
-1.54694
 20
12.6027
 11
-1.54999
 21
12.7
  0
LINE
  8
0
 10
-1.54999
 20
12.7
 11
-1.54694
 21
12.7973
  0
LINE
  8
0
 10
-1.54694
 20
12.7973
 11
-1.53777
 21
12.8943
  0
LINE
  8
0
 10
-1.53777
 20
12.8943
 11
-1.52254
 21
12.9904
  0
LINE
  8
0
 10
-1.52254
 20
12.9904
 11
-1.5013
 21
13.0855
  0
LINE
  8
0
 10
-1.5013
 20
13.0855
 11
-1.47414
 21
13.179
  0
LINE
  8
0
 10
-1.47414
 20
13.179
 11
-1.44115
 21
13.2706
  0
LINE
  8
0
 10
-1.44115
 20
13.2706
 11
-1.40248
 21
13.36
  0
LINE
  8
0
 10
-1.40248
 20
13.36
 11
-1.35826
 21
13.4467
  0
LINE
  8
0
 10
-1.35826
 20
13.4467
 11
-1.3087
 21
13.5305
  0
LINE
  8
0
 10
-1.3087
 20
13.5305
 11
-1.25397
 21
13.6111
  0
LINE
  8
0
 10
-1.25397
 20
13.6111
 11
-1.19429
 21
13.688
  0
LINE
  8
0
 10
-1.19429
 20
13.688
 11
-1.1299
 21
13.761
  0
LINE
  8
0
 10
-1.1299
 20
13.761
 11
-1.06104
 21
13.8299
  0
LINE
  8
0
 10
-1.06104
 20
13.8299
 11
-0.988007
 21
13.8943
  0
LINE
  8
0
 10
-0.988007
 20
13.8943
 11
-0.911057
 21
13.954
  0
LINE
  8
0
 10
-0.911057
 20
13.954
 11
-0.830521
 21
14.0087
  0
LINE
  8
0
 10
-0.830521
 20
14.0087
 11
-0.746704
 21
14.0583
  0
LINE
  8
0
 10
-0.746704
 20
14.0583
 11
-0.659958
 21
14.1025
  0
LINE
  8
0
 10
-0.659958
 20
14.1025
 11
-0.570587
 21
14.1411
  0
LINE
  8
0
 10
-0.570587
 20
14.1411
 11
-0.478973
 21
14.1741
  0
LINE
  8
0
 10
-0.478973
 20
14.1741
 11
-0.385468
 21
14.2013
  0
LINE
  8
0
 10
-0.385468
 20
14.2013
 11
-0.290436
 21
14.2225
  0
LINE
  8
0
 10
-0.290436
 20
14.2225
 11
-0.19426
 21
14.2378
  0
LINE
  8
0
 10
-0.19426
 20
14.2378
 11
-0.0973206
 21
14.2469
  0
LINE
  8
0
 10
-0.0973206
 20
14.2469
 11
0
 21
14.25
  0
LINE
  8
0
 10
0
 20
14.25
 11
0.0973206
 21
14.2469
  0
LINE
  8
0
 10
0.0973206
 20
14.2469
 11
0.19426
 21
14.2378
  0
LINE
  8
0
 10
0.19426
 20
14.2378
 11
0.290436
 21
14.2225
  0
LINE
  8
0
 10
0.290436
 20
14.2225
 11
0.385468
 21
14.2013
  0
LINE
  8
0
 10
0.385468
 20
14.2013
 11
0.478973
 21
14.1741
  0
LINE
  8
0
 10
0.478973
 20
14.1741
 11
0.570587
 21
14.1411
  0
LINE
  8
0
 10
0.570587
 20
14.1411
 11
0.659958
 21
14.1025
  0
LINE
  8
0
 10
0.659958
 20
14.1025
 11
0.746704
 21
14.0583
  0
LINE
  8
0
 10
0.746704
 20
14.0583
 11
0.830521
 21
14.0087
  0
LINE
  8
0
 10
0.830521
 20
14.0087
 11
0.911057
 21
13.954
  0
LINE
  8
0
 10
0.911057
 20
13.954
 11
0.988007
 21
13.8943
  0
LINE
  8
0
 10
0.988007
 20
13.8943
 11
1.06104
 21
13.8299
  0
LINE
  8
0
 10
1.06104
 20
13.8299
 11
1.1299
 21
13.761
  0
LINE
  8
0
 10
1.1299
 20
13.761
 11
1.19429
 21
13.688
  0
LINE
  8
0
 10
1.19429
 20
13.688
 11
1.25397
 21
13.6111
  0
LINE
  8
0
 10
1.25397
 20
13.6111
 11
1.3087
 21
13.5305
  0
LINE
  8
0
 10
1.3087
 20
13.5305
 11
1.35826
 21
13.4467
  0
LINE
  8
0
 10
1.35826
 20
13.4467
 11
1.40248
 21
13.36
  0
LINE
  8
0
 10
1.40248
 20
13.36
 11
1.44115
 21
13.2706
  0
LINE
  8
0
 10
1.44115
 20
13.2706
 11
1.47414
 21
13.179
  0
LINE
  8
0
 10
1.47414
 20
13.179
 11
1.5013
 21
13.0855
  0
LINE
  8
0
 10
1.5013
 20
13.0855
 11
1.52254
 21
12.9904
  0
LINE
  8
0
 10
1.52254
 20
12.9904
 11
1.53777
 21
12.8943
  0
LINE
  8
0
 10
1.53777
 20
12.8943
 11
1.54694
 21
12.7973
  0
LINE
  8
0
 10
1.54694
 20
12.7973
 11
1.54999
 21
12.7
  0
LINE
  8
0
 10
1.54999
 20
12.7
 11
1.54694
 21
12.6027
  0
LINE
  8
0
 10
1.54694
 20
12.6027
 11
1.53777
 21
12.5057
  0
LINE
  8
0
 10
1.53777
 20
12.5057
 11
1.52254
 21
12.4095
  0
LINE
  8
0
 10
1.52254
 20
12.4095
 11
1.5013
 21
12.3145
  0
LINE
  8
0
 10
1.5013
 20
12.3145
 11
1.47414
 21
12.221
  0
LINE
  8
0
 10
1.47414
 20
12.221
 11
1.44115
 21
12.1294
  0
LINE
  8
0
 10
1.44115
 20
12.1294
 11
1.40248
 21
12.04
  0
LINE
  8
0
 10
1.40248
 20
12.04
 11
1.35826
 21
11.9533
  0
LINE
  8
0
 10
1.35826
 20
11.9533
 11
1.3087
 21
11.8695
  0
LINE
  8
0
 10
1.3087
 20
11.8695
 11
1.25397
 21
11.7889
  0
LINE
  8
0
 10
1.25397
 20
11.7889
 11
1.19429
 21
11.712
  0
LINE
  8
0
 10
1.19429
 20
11.712
 11
1.1299
 21
11.6389
  0
LINE
  8
0
 10
1.1299
 20
11.6389
 11
1.06104
 21
11.5701
  0
LINE
  8
0
 10
1.06104
 20
11.5701
 11
0.988007
 21
11.5057
  0
LINE
  8
0
 10
0.988007
 20
11.5057
 11
0.911057
 21
11.446
  0
LINE
  8
0
 10
0.911057
 20
11.446
 11
0.830521
 21
11.3913
  0
LINE
  8
0
 10
0.830521
 20
11.3913
 11
0.746704
 21
11.3417
  0
LINE
  8
0
 10
0.746704
 20
11.3417
 11
0.659958
 21
11.2975
  0
LINE
  8
0
 10
0.659958
 20
11.2975
 11
0.570587
 21
11.2588
  0
LINE
  8
0
 10
0.570587
 20
11.2588
 11
0.478973
 21
11.2259
  0
LINE
  8
0
 10
0.478973
 20
11.2259
 11
0.385468
 21
11.1987
  0
LINE
  8
0
 10
0.385468
 20
11.1987
 11
0.290436
 21
11.1774
  0
LINE
  8
0
 10
0.290436
 20
11.1774
 11
0.19426
 21
11.1622
  0
LINE
  8
0
 10
0.19426
 20
11.1622
 11
0.0973206
 21
11.153
  0
LINE
  8
0
 10
0.0973206
 20
11.153
 11
0
 21
11.15
  0
LINE
  8
0
 10
0
 20
11.15
 11
-0.0973206
 21
11.153
  0
LINE
  8
0
 10
-0.0973206
 20
-14.2469
 11
-0.19426
 21
-14.2378
  0
LINE
  8
0
 10
-0.19426
 20
-14.2378
 11
-0.290436
 21
-14.2225
  0
LINE
  8
0
 10
-0.290436
 20
-14.2225
 11
-0.385468
 21
-14.2013
  0
LINE
  8
0
 10
-0.385468
 20
-14.2013
 11
-0.478973
 21
-14.1741
  0
LINE
  8
0
 10
-0.478973
 20
-14.1741
 11
-0.570587
 21
-14.1411
  0
LINE
  8
0
 10
-0.570587
 20
-14.1411
 11
-0.659958
 21
-14.1025
  0
LINE
  8
0
 10
-0.659958
 20
-14.1025
 11
-0.746704
 21
-14.0583
  0
LINE
  8
0
 10
-0.746704
 20
-14.0583
 11
-0.830521
 21
-14.0087
  0
LINE
  8
0
 10
-0.830521
 20
-14.0087
 11
-0.911057
 21
-13.954
  0
LINE
  8
0
 10
-0.911057
 20
-13.954
 11
-0.988007
 21
-13.8943
  0
LINE
  8
0
 10
-0.988007
 20
-13.8943
 11
-1.06104
 21
-13.8299
  0
LINE
  8
0
 10
-1.06104
 20
-13.8299
 11
-1.1299
 21
-13.761
  0
LINE
  8
0
 10
-1.1299
 20
-13.761
 11
-1.19429
 21
-13.688
  0
LINE
  8
0
 10
-1.19429
 20
-13.688
 11
-1.25397
 21
-13.6111
  0
LINE
  8
0
 10
-1.25397
 20
-13.6111
 11
-1.3087
 21
-13.5305
  0
LINE
  8
0
 10
-1.3087
 20
-13.5305
 11
-1.35826
 21
-13.4467
  0
LINE
  8
0
 10
-1.35826
 20
-13.4467
 11
-1.40248
 21
-13.36
  0
LINE
  8
0
 10
-1.40248
 20
-13.36
 11
-1.44115
 21
-13.2706
  0
LINE
  8
0
 10
-1.44115
 20
-13.2706
 11
-1.47414
 21
-13.179
  0
LINE
  8
0
 10
-1.47414
 20
-13.179
 11
-1.5013
 21
-13.0855
  0
LINE
  8
0
 10
-1.5013
 20
-13.0855
 11
-1.52254
 21
-12.9904
  0
LINE
  8
0
 10
-1.52254
 20
-12.9904
 11
-1.53777
 21
-12.8943
  0
LINE
  8
0
 10
-1.53777
 20
-12.8943
 11
-1.54694
 21
-12.7973
  0
LINE
  8
0
 10
-1.54694
 20
-12.7973
 11
-1.54999
 21
-12.7
  0
LINE
  8
0
 10
-1.54999
 20
-12.7
 11
-1.54694
 21
-12.6027
  0
LINE
  8
0
 10
-1.54694
 20
-12.6027
 11
-1.53777
 21
-12.5057
  0
LINE
  8
0
 10
-1.53777
 20
-12.5057
 11
-1.52254
 21
-12.4095
  0
LINE
  8
0
 10
-1.52254
 20
-12.4095
 11
-1.5013
 21
-12.3145
  0
LINE
  8
0
 10
-1.5013
 20
-12.3145
 11
-1.47414
 21
-12.221
  0
LINE
  8
0
 10
-1.47414
 20
-12.221
 11
-1.44115
 21
-12.1294
  0
LINE
  8
0
 10
-1.44115
 20
-12.1294
 11
-1.40248
 21
-12.04
  0
LINE
  8
0
 10
-1.40248
 20
-12.04
 11
-1.35826
 21
-11.9533
  0
LINE
  8
0
 10
-1.35826
 20
-11.9533
 11
-1.3087
 21
-11.8695
  0
LINE
  8
0
 10
-1.3087
 20
-11.8695
 11
-1.25397
 21
-11.7889
  0
LINE
  8
0
 10
-1.25397
 20
-11.7889
 11
-1.19429
 21
-11.712
  0
LINE
  8
0
 10
-1.19429
 20
-11.712
 11
-1.1299
 21
-11.6389
  0
LINE
  8
0
 10
-1.1299
 20
-11.6389
 11
-1.06104
 21
-11.5701
  0
LINE
  8
0
 10
-1.06104
 20
-11.5701
 11
-0.988007
 21
-11.5057
  0
LINE
  8
0
 10
-0.988007
 20
-11.5057
 11
-0.911057
 21
-11.446
  0
LINE
  8
0
 10
-0.911057
 20
-11.446
 11
-0.830521
 21
-11.3913
  0
LINE
  8
0
 10
-0.830521
 20
-11.3913
 11
-0.746704
 21
-11.3417
  0
LINE
  8
0
 10
-0.746704
 20
-11.3417
 11
-0.659958
 21
-11.2975
  0
LINE
  8
0
 10
-0.659958
 20
-11.2975
 11
-0.570587
 21
-11.2588
  0
LINE
  8
0
 10
-0.570587
 20
-11.2588
 11
-0.478973
 21
-11.2259
  0
LINE
  8
0
 10
-0.478973
 20
-11.2259
 11
-0.385468
 21
-11.1987
  0
LINE
  8
0
 10
-0.385468
 20
-11.1987
 11
-0.290436
 21
-11.1774
  0
LINE
  8
0
 10
-0.290436
 20
-11.1774
 11
-0.19426
 21
-11.1622
  0
LINE
  8
0
 10
-0.19426
 20
-11.1622
 11
-0.0973206
 21
-11.153
  0
LINE
  8
0
 10
-0.0973206
 20
-11.153
 11
0
 21
-11.15
  0
LINE
  8
0
 10
0
 20
-11.15
 11
0.0973206
 21
-11.153
  0
LINE
  8
0
 10
0.0973206
 20
-11.153
 11
0.19426
 21
-11.1622
  0
LINE
  8
0
 10
0.19426
 20
-11.1622
 11
0.290436
 21
-11.1774
  0
LINE
  8
0
 10
0.290436
 20
-11.1774
 11
0.385468
 21
-11.1987
  0
LINE
  8
0
 10
0.385468
 20
-11.1987
 11
0.478973
 21
-11.2259
  0
LINE
  8
0
 10
0.478973
 20
-11.2259
 11
0.570587
 21
-11.2588
  0
LINE
  8
0
 10
0.570587
 20
-11.2588
 11
0.659958
 21
-11.2975
  0
LINE
  8
0
 10
0.659958
 20
-11.2975
 11
0.746704
 21
-11.3417
  0
LINE
  8
0
 10
0.746704
 20
-11.3417
 11
0.830521
 21
-11.3913
  0
LINE
  8
0
 10
0.830521
 20
-11.3913
 11
0.911057
 21
-11.446
  0
LINE
  8
0
 10
0.911057
 20
-11.446
 11
0.988007
 21
-11.5057
  0
LINE
  8
0
 10
0.988007
 20
-11.5057
 11
1.06104
 21
-11.5701
  0
LINE
  8
0
 10
1.06104
 20
-11.5701
 11
1.1299
 21
-11.6389
  0
LINE
  8
0
 10
1.1299
 20
-11.6389
 11
1.19429
 21
-11.712
  0
LINE
  8
0
 10
1.19429
 20
-11.712
 11
1.25397
 21
-11.7889
  0
LINE
  8
0
 10
1.25397
 20
-11.7889
 11
1.3087
 21
-11.8695
  0
LINE
  8
0
 10
1.3087
 20
-11.8695
 11
1.35826
 21
-11.9533
  0
LINE
  8
0
 10
1.35826
 20
-11.9533
 11
1.40248
 21
-12.04
  0
LINE
  8
0
 10
1.40248
 20
-12.04
 11
1.44115
 21
-12.1294
  0
LINE
  8
0
 10
1.44115
 20
-12.1294
 11
1.47414
 21
-12.221
  0
LINE
  8
0
 10
1.47414
 20
-12.221
 11
1.5013
 21
-12.3145
  0
LINE
  8
0
 10
1.5013
 20
-12.3145
 11
1.52254
 21
-12.4095
  0
LINE
  8
0
 10
1.52254
 20
-12.4095
 11
1.53777
 21
-12.5057
  0
LINE
  8
0
 10
1.53777
 20
-12.5057
 11
1.54694
 21
-12.6027
  0
LINE
  8
0
 10
1.54694
 20
-12.6027
 11
1.54999
 21
-12.7
  0
LINE
  8
0
 10
1.54999
 20
-12.7
 11
1.54694
 21
-12.7973
  0
LINE
  8
0
 10
1.54694
 20
-12.7973
 11
1.53777
 21
-12.8943
  0
LINE
  8
0
 10
1.53777
 20
-12.8943
 11
1.52254
 21
-12.9904
  0
LINE
  8
0
 10
1.52254
 20
-12.9904
 11
1.5013
 21
-13.0855
  0
LINE
  8
0
 10
1.5013
 20
-13.0855
 11
1.47414
 21
-13.179
  0
LINE
  8
0
 10
1.47414
 20
-13.179
 11
1.44115
 21
-13.2706
  0
LINE
  8
0
 10
1.44115
 20
-13.2706
 11
1.40248
 21
-13.36
  0
LINE
  8
0
 10
1.40248
 20
-13.36
 11
1.35826
 21
-13.4467
  0
LINE
  8
0
 10
1.35826
 20
-13.4467
 11
1.3087
 21
-13.5305
  0
LINE
  8
0
 10
1.3087
 20
-13.5305
 11
1.25397
 21
-13.6111
  0
LINE
  8
0
 10
1.25397
 20
-13.6111
 11
1.19429
 21
-13.688
  0
LINE
  8
0
 10
1.19429
 20
-13.688
 11
1.1299
 21
-13.761
  0
LINE
  8
0
 10
1.1299
 20
-13.761
 11
1.06104
 21
-13.8299
  0
LINE
  8
0
 10
1.06104
 20
-13.8299
 11
0.988007
 21
-13.8943
  0
LINE
  8
0
 10
0.988007
 20
-13.8943
 11
0.911057
 21
-13.954
  0
LINE
  8
0
 10
0.911057
 20
-13.954
 11
0.830521
 21
-14.0087
  0
LINE
  8
0
 10
0.830521
 20
-14.0087
 11
0.746704
 21
-14.0583
  0
LINE
  8
0
 10
0.746704
 20
-14.0583
 11
0.659958
 21
-14.1025
  0
LINE
  8
0
 10
0.659958
 20
-14.1025
 11
0.570587
 21
-14.1411
  0
LINE
  8
0
 10
0.570587
 20
-14.1411
 11
0.478973
 21
-14.1741
  0
LINE
  8
0
 10
0.478973
 20
-14.1741
 11
0.385468
 21
-14.2013
  0
LINE
  8
0
 10
0.385468
 20
-14.2013
 11
0.290436
 21
-14.2225
  0
LINE
  8
0
 10
0.290436
 20
-14.2225
 11
0.19426
 21
-14.2378
  0
LINE
  8
0
 10
0.19426
 20
-14.2378
 11
0.0973206
 21
-14.2469
  0
LINE
  8
0
 10
0.0973206
 20
-14.2469
 11
0
 21
-14.25
  0
LINE
  8
0
 10
0
 20
-14.25
 11
-0.0973206
 21
-14.2469
  0
ENDSEC
  0
SECTION
  2
OBJECTS
  0
DICTIONARY
  0
ENDSEC
  0
EOF
