  0
SECTION
  2
BLOCKS
  0
ENDSEC
  0
SECTION
  2
ENTITIES
  0
LINE
  8
0
 10
13
 20
23
 11
-13
 21
23
  0
LINE
  8
0
 10
-13
 20
23
 11
-13
 21
-23
  0
LINE
  8
0
 10
-13
 20
-23
 11
13
 21
-23
  0
LINE
  8
0
 10
13
 20
-23
 11
13
 21
23
  0
LINE
  8
0
 10
-0.0973206
 20
11.153
 11
-0.19426
 21
11.1622
  0
LINE
  8
0
 10
-0.19426
 20
11.1622
 11
-0.290436
 21
11.1774
  0
LINE
  8
0
 10
-0.290436
 20
11.1774
 11
-0.385468
 21
11.1987
  0
LINE
  8
0
 10
-0.385468
 20
11.1987
 11
-0.478973
 21
11.2259
  0
LINE
  8
0
 10
-0.478973
 20
11.2259
 11
-0.570587
 21
11.2588
  0
LINE
  8
0
 10
-0.570587
 20
11.2588
 11
-0.659958
 21
11.2975
  0
LINE
  8
0
 10
-0.659958
 20
11.2975
 11
-0.746704
 21
11.3417
  0
LINE
  8
0
 10
-0.746704
 20
11.3417
 11
-0.830521
 21
11.3913
  0
LINE
  8
0
 10
-0.830521
 20
11.3913
 11
-0.911057
 21
11.446
  0
LINE
  8
0
 10
-0.911057
 20
11.446
 11
-0.988007
 21
11.5057
  0
LINE
  8
0
 10
-0.988007
 20
11.5057
 11
-1.06104
 21
11.5701
  0
LINE
  8
0
 10
-1.06104
 20
11.5701
 11
-1.1299
 21
11.6389
  0
LINE
  8
0
 10
-1.1299
 20
11.6389
 11
-1.19429
 21
11.712
  0
LINE
  8
0
 10
-1.19429
 20
11.712
 11
-1.25397
 21
11.7889
  0
LINE
  8
0
 10
-1.25397
 20
11.7889
 11
-1.3087
 21
11.8695
  0
LINE
  8
0
 10
-1.3087
 20
11.8695
 11
-1.35826
 21
11.9533
  0
LINE
  8
0
 10
-1.35826
 20
11.9533
 11
-1.40248
 21
12.04
  0
LINE
  8
0
 10
-1.40248
 20
12.04
 11
-1.44115
 21
12.1294
  0
LINE
  8
0
 10
-1.44115
 20
12.1294
 11
-1.47414
 21
12.221
  0
LINE
  8
0
 10
-1.47414
 20
12.221
 11
-1.5013
 21
12.3145
  0
LINE
  8
0
 10
-1.5013
 20
12.3145
 11
-1.52254
 21
12.4095
  0
LINE
  8
0
 10
-1.52254
 20
12.4095
 11
-1.53777
 21
12.5057
  0
LINE
  8
0
 10
-1.53777
 20
12.5057
 11
-1.54694
 21
12.6027
  0
LINE
  8
0
 10
-1.54694
 20
12.6027
 11
-1.54999
 21
12.7
  0
LINE
  8
0
 10
-1.54999
 20
12.7
 11
-1.54694
 21
12.7973
  0
LINE
  8
0
 10
-1.54694
 20
12.7973
 11
-1.53777
 21
12.8943
  0
LINE
  8
0
 10
-1.53777
 20
12.8943
 11
-1.52254
 21
12.9904
  0
LINE
  8
0
 10
-1.52254
 20
12.9904
 11
-1.5013
 21
13.0855
  0
LINE
  8
0
 10
-1.5013
 20
13.0855
 11
-1.47414
 21
13.179
  0
LINE
  8
0
 10
-1.47414
 20
13.179
 11
-1.44115
 21
13.2706
  0
LINE
  8
0
 10
-1.44115
 20
13.2706
 11
-1.40248
 21
13.36
  0
LINE
  8
0
 10
-1.40248
 20
13.36
 11
-1.35826
 21
13.4467
  0
LINE
  8
0
 10
-1.35826
 20
13.4467
 11
-1.3087
 21
13.5305
  0
LINE
  8
0
 10
-1.3087
 20
13.5305
 11
-1.25397
 21
13.6111
  0
LINE
  8
0
 10
-1.25397
 20
13.6111
 11
-1.19429
 21
13.688
  0
LINE
  8
0
 10
-1.19429
 20
13.688
 11
-1.1299
 21
13.761
  0
LINE
  8
0
 10
-1.1299
 20
13.761
 11
-1.06104
 21
13.8299
  0
LINE
  8
0
 10
-1.06104
 20
13.8299
 11
-0.988007
 21
13.8943
  0
LINE
  8
0
 10
-0.988007
 20
13.8943
 11
-0.911057
 21
13.954
  0
LINE
  8
0
 10
-0.911057
 20
13.954
 11
-0.830521
 21
14.0087
  0
LINE
  8
0
 10
-0.830521
 20
14.0087
 11
-0.746704
 21
14.0583
  0
LINE
  8
0
 10
-0.746704
 20
14.0583
 11
-0.659958
 21
14.1025
  0
LINE
  8
0
 10
-0.659958
 20
14.1025
 11
-0.570587
 21
14.1411
  0
LINE
  8
0
 10
-0.570587
 20
14.1411
 11
-0.478973
 21
14.1741
  0
LINE
  8
0
 10
-0.478973
 20
14.1741
 11
-0.385468
 21
14.2013
  0
LINE
  8
0
 10
-0.385468
 20
14.2013
 11
-0.290436
 21
14.2225
  0
LINE
  8
0
 10
-0.290436
 20
14.2225
 11
-0.19426
 21
14.2378
  0
LINE
  8
0
 10
-0.19426
 20
14.2378
 11
-0.0973206
 21
14.2469
  0
LINE
  8
0
 10
-0.0973206
 20
14.2469
 11
0
 21
14.25
  0
LINE
  8
0
 10
0
 20
14.25
 11
0.0973206
 21
14.2469
  0
LINE
  8
0
 10
0.0973206
 20
14.2469
 11
0.19426
 21
14.2378
  0
LINE
  8
0
 10
0.19426
 20
14.2378
 11
0.290436
 21
14.2225
  0
LINE
  8
0
 10
0.290436
 20
14.2225
 11
0.385468
 21
14.2013
  0
LINE
  8
0
 10
0.385468
 20
14.2013
 11
0.478973
 21
14.1741
  0
LINE
  8
0
 10
0.478973
 20
14.1741
 11
0.570587
 21
14.1411
  0
LINE
  8
0
 10
0.570587
 20
14.1411
 11
0.659958
 21
14.1025
  0
LINE
  8
0
 10
0.659958
 20
14.1025
 11
0.746704
 21
14.0583
  0
LINE
  8
0
 10
0.746704
 20
14.0583
 11
0.830521
 21
14.0087
  0
LINE
  8
0
 10
0.830521
 20
14.0087
 11
0.911057
 21
13.954
  0
LINE
  8
0
 10
0.911057
 20
13.954
 11
0.988007
 21
13.8943
  0
LINE
  8
0
 10
0.988007
 20
13.8943
 11
1.06104
 21
13.8299
  0
LINE
  8
0
 10
1.06104
 20
13.8299
 11
1.1299
 21
13.761
  0
LINE
  8
0
 10
1.1299
 20
13.761
 11
1.19429
 21
13.688
  0
LINE
  8
0
 10
1.19429
 20
13.688
 11
1.25397
 21
13.6111
  0
LINE
  8
0
 10
1.25397
 20
13.6111
 11
1.3087
 21
13.5305
  0
LINE
  8
0
 10
1.3087
 20
13.5305
 11
1.35826
 21
13.4467
  0
LINE
  8
0
 10
1.35826
 20
13.4467
 11
1.40248
 21
13.36
  0
LINE
  8
0
 10
1.40248
 20
13.36
 11
1.44115
 21
13.2706
  0
LINE
  8
0
 10
1.44115
 20
13.2706
 11
1.47414
 21
13.179
  0
LINE
  8
0
 10
1.47414
 20
13.179
 11
1.5013
 21
13.0855
  0
LINE
  8
0
 10
1.5013
 20
13.0855
 11
1.52254
 21
12.9904
  0
LINE
  8
0
 10
1.52254
 20
12.9904
 11
1.53777
 21
12.8943
  0
LINE
  8
0
 10
1.53777
 20
12.8943
 11
1.54694
 21
12.7973
  0
LINE
  8
0
 10
1.54694
 20
12.7973
 11
1.54999
 21
12.7
  0
LINE
  8
0
 10
1.54999
 20
12.7
 11
1.54694
 21
12.6027
  0
LINE
  8
0
 10
1.54694
 20
12.6027
 11
1.53777
 21
12.5057
  0
LINE
  8
0
 10
1.53777
 20
12.5057
 11
1.52254
 21
12.4095
  0
LINE
  8
0
 10
1.52254
 20
12.4095
 11
1.5013
 21
12.3145
  0
LINE
  8
0
 10
1.5013
 20
12.3145
 11
1.47414
 21
12.221
  0
LINE
  8
0
 10
1.47414
 20
12.221
 11
1.44115
 21
12.1294
  0
LINE
  8
0
 10
1.44115
 20
12.1294
 11
1.40248
 21
12.04
  0
LINE
  8
0
 10
1.40248
 20
12.04
 11
1.35826
 21
11.9533
  0
LINE
  8
0
 10
1.35826
 20
11.9533
 11
1.3087
 21
11.8695
  0
LINE
  8
0
 10
1.3087
 20
11.8695
 11
1.25397
 21
11.7889
  0
LINE
  8
0
 10
1.25397
 20
11.7889
 11
1.19429
 21
11.712
  0
LINE
  8
0
 10
1.19429
 20
11.712
 11
1.1299
 21
11.6389
  0
LINE
  8
0
 10
1.1299
 20
11.6389
 11
1.06104
 21
11.5701
  0
LINE
  8
0
 10
1.06104
 20
11.5701
 11
0.988007
 21
11.5057
  0
LINE
  8
0
 10
0.988007
 20
11.5057
 11
0.911057
 21
11.446
  0
LINE
  8
0
 10
0.911057
 20
11.446
 11
0.830521
 21
11.3913
  0
LINE
  8
0
 10
0.830521
 20
11.3913
 11
0.746704
 21
11.3417
  0
LINE
  8
0
 10
0.746704
 20
11.3417
 11
0.659958
 21
11.2975
  0
LINE
  8
0
 10
0.659958
 20
11.2975
 11
0.570587
 21
11.2588
  0
LINE
  8
0
 10
0.570587
 20
11.2588
 11
0.478973
 21
11.2259
  0
LINE
  8
0
 10
0.478973
 20
11.2259
 11
0.385468
 21
11.1987
  0
LINE
  8
0
 10
0.385468
 20
11.1987
 11
0.290436
 21
11.1774
  0
LINE
  8
0
 10
0.290436
 20
11.1774
 11
0.19426
 21
11.1622
  0
LINE
  8
0
 10
0.19426
 20
11.1622
 11
0.0973206
 21
11.153
  0
LINE
  8
0
 10
0.0973206
 20
11.153
 11
0
 21
11.15
  0
LINE
  8
0
 10
0
 20
11.15
 11
-0.0973206
 21
11.153
  0
LINE
  8
0
 10
6.25267
 20
6.07304
 11
6.15573
 21
6.08221
  0
LINE
  8
0
 10
6.15573
 20
6.08221
 11
6.05956
 21
6.09744
  0
LINE
  8
0
 10
6.05956
 20
6.09744
 11
5.96452
 21
6.11868
  0
LINE
  8
0
 10
5.96452
 20
6.11868
 11
5.87102
 21
6.14586
  0
LINE
  8
0
 10
5.87102
 20
6.14586
 11
5.7794
 21
6.17883
  0
LINE
  8
0
 10
5.7794
 20
6.17883
 11
5.69003
 21
6.21751
  0
LINE
  8
0
 10
5.69003
 20
6.21751
 11
5.60327
 21
6.26172
  0
LINE
  8
0
 10
5.60327
 20
6.26172
 11
5.51945
 21
6.31128
  0
LINE
  8
0
 10
5.51945
 20
6.31128
 11
5.43892
 21
6.36601
  0
LINE
  8
0
 10
5.43892
 20
6.36601
 11
5.36198
 21
6.42569
  0
LINE
  8
0
 10
5.36198
 20
6.42569
 11
5.28894
 21
6.4901
  0
LINE
  8
0
 10
5.28894
 20
6.4901
 11
5.22009
 21
6.55894
  0
LINE
  8
0
 10
5.22009
 20
6.55894
 11
5.1557
 21
6.63199
  0
LINE
  8
0
 10
5.1557
 20
6.63199
 11
5.09602
 21
6.70892
  0
LINE
  8
0
 10
5.09602
 20
6.70892
 11
5.04129
 21
6.78946
  0
LINE
  8
0
 10
5.04129
 20
6.78946
 11
4.99171
 21
6.87328
  0
LINE
  8
0
 10
4.99171
 20
6.87328
 11
4.94751
 21
6.96004
  0
LINE
  8
0
 10
4.94751
 20
6.96004
 11
4.90884
 21
7.04939
  0
LINE
  8
0
 10
4.90884
 20
7.04939
 11
4.87585
 21
7.14102
  0
LINE
  8
0
 10
4.87585
 20
7.14102
 11
4.84869
 21
7.23453
  0
LINE
  8
0
 10
4.84869
 20
7.23453
 11
4.82745
 21
7.32954
  0
LINE
  8
0
 10
4.82745
 20
7.32954
 11
4.81221
 21
7.42572
  0
LINE
  8
0
 10
4.81221
 20
7.42572
 11
4.80305
 21
7.52267
  0
LINE
  8
0
 10
4.80305
 20
7.52267
 11
4.79999
 21
7.62
  0
LINE
  8
0
 10
4.79999
 20
7.62
 11
4.80305
 21
7.71732
  0
LINE
  8
0
 10
4.80305
 20
7.71732
 11
4.81221
 21
7.81425
  0
LINE
  8
0
 10
4.81221
 20
7.81425
 11
4.82745
 21
7.91043
  0
LINE
  8
0
 10
4.82745
 20
7.91043
 11
4.84869
 21
8.00546
  0
LINE
  8
0
 10
4.84869
 20
8.00546
 11
4.87585
 21
8.09897
  0
LINE
  8
0
 10
4.87585
 20
8.09897
 11
4.90884
 21
8.19058
  0
LINE
  8
0
 10
4.90884
 20
8.19058
 11
4.94751
 21
8.27995
  0
LINE
  8
0
 10
4.94751
 20
8.27995
 11
4.99171
 21
8.36671
  0
LINE
  8
0
 10
4.99171
 20
8.36671
 11
5.04129
 21
8.45053
  0
LINE
  8
0
 10
5.04129
 20
8.45053
 11
5.09602
 21
8.53107
  0
LINE
  8
0
 10
5.09602
 20
8.53107
 11
5.1557
 21
8.608
  0
LINE
  8
0
 10
5.1557
 20
8.608
 11
5.22009
 21
8.68105
  0
LINE
  8
0
 10
5.22009
 20
8.68105
 11
5.28894
 21
8.74989
  0
LINE
  8
0
 10
5.28894
 20
8.74989
 11
5.36198
 21
8.81429
  0
LINE
  8
0
 10
5.36198
 20
8.81429
 11
5.43892
 21
8.87396
  0
LINE
  8
0
 10
5.43892
 20
8.87396
 11
5.51945
 21
8.9287
  0
LINE
  8
0
 10
5.51945
 20
8.9287
 11
5.60327
 21
8.97827
  0
LINE
  8
0
 10
5.60327
 20
8.97827
 11
5.69003
 21
9.02248
  0
LINE
  8
0
 10
5.69003
 20
9.02248
 11
5.7794
 21
9.06114
  0
LINE
  8
0
 10
5.7794
 20
9.06114
 11
5.87102
 21
9.09413
  0
LINE
  8
0
 10
5.87102
 20
9.09413
 11
5.96452
 21
9.12129
  0
LINE
  8
0
 10
5.96452
 20
9.12129
 11
6.05956
 21
9.14253
  0
LINE
  8
0
 10
6.05956
 20
9.14253
 11
6.15573
 21
9.15778
  0
LINE
  8
0
 10
6.15573
 20
9.15778
 11
6.25267
 21
9.16693
  0
LINE
  8
0
 10
6.25267
 20
9.16693
 11
6.34999
 21
9.17
  0
LINE
  8
0
 10
6.34999
 20
9.17
 11
6.44731
 21
9.16693
  0
LINE
  8
0
 10
6.44731
 20
9.16693
 11
6.54427
 21
9.15778
  0
LINE
  8
0
 10
6.54427
 20
9.15778
 11
6.64043
 21
9.14253
  0
LINE
  8
0
 10
6.64043
 20
9.14253
 11
6.73546
 21
9.12129
  0
LINE
  8
0
 10
6.73546
 20
9.12129
 11
6.82896
 21
9.09413
  0
LINE
  8
0
 10
6.82896
 20
9.09413
 11
6.92058
 21
9.06114
  0
LINE
  8
0
 10
6.92058
 20
9.06114
 11
7.00995
 21
9.02248
  0
LINE
  8
0
 10
7.00995
 20
9.02248
 11
7.09671
 21
8.97827
  0
LINE
  8
0
 10
7.09671
 20
8.97827
 11
7.18053
 21
8.9287
  0
LINE
  8
0
 10
7.18053
 20
8.9287
 11
7.26106
 21
8.87396
  0
LINE
  8
0
 10
7.26106
 20
8.87396
 11
7.338
 21
8.81429
  0
LINE
  8
0
 10
7.338
 20
8.81429
 11
7.41104
 21
8.74989
  0
LINE
  8
0
 10
7.41104
 20
8.74989
 11
7.47989
 21
8.68105
  0
LINE
  8
0
 10
7.47989
 20
8.68105
 11
7.54428
 21
8.608
  0
LINE
  8
0
 10
7.54428
 20
8.608
 11
7.60397
 21
8.53107
  0
LINE
  8
0
 10
7.60397
 20
8.53107
 11
7.65871
 21
8.45053
  0
LINE
  8
0
 10
7.65871
 20
8.45053
 11
7.70827
 21
8.36671
  0
LINE
  8
0
 10
7.70827
 20
8.36671
 11
7.75247
 21
8.27995
  0
LINE
  8
0
 10
7.75247
 20
8.27995
 11
7.79115
 21
8.19058
  0
LINE
  8
0
 10
7.79115
 20
8.19058
 11
7.82413
 21
8.09897
  0
LINE
  8
0
 10
7.82413
 20
8.09897
 11
7.8513
 21
8.00546
  0
LINE
  8
0
 10
7.8513
 20
8.00546
 11
7.87254
 21
7.91043
  0
LINE
  8
0
 10
7.87254
 20
7.91043
 11
7.88777
 21
7.81425
  0
LINE
  8
0
 10
7.88777
 20
7.81425
 11
7.89693
 21
7.71732
  0
LINE
  8
0
 10
7.89693
 20
7.71732
 11
7.89999
 21
7.62
  0
LINE
  8
0
 10
7.89999
 20
7.62
 11
7.89693
 21
7.52267
  0
LINE
  8
0
 10
7.89693
 20
7.52267
 11
7.88777
 21
7.42572
  0
LINE
  8
0
 10
7.88777
 20
7.42572
 11
7.87254
 21
7.32954
  0
LINE
  8
0
 10
7.87254
 20
7.32954
 11
7.8513
 21
7.23453
  0
LINE
  8
0
 10
7.8513
 20
7.23453
 11
7.82413
 21
7.14102
  0
LINE
  8
0
 10
7.82413
 20
7.14102
 11
7.79115
 21
7.04939
  0
LINE
  8
0
 10
7.79115
 20
7.04939
 11
7.75247
 21
6.96004
  0
LINE
  8
0
 10
7.75247
 20
6.96004
 11
7.70827
 21
6.87328
  0
LINE
  8
0
 10
7.70827
 20
6.87328
 11
7.65871
 21
6.78946
  0
LINE
  8
0
 10
7.65871
 20
6.78946
 11
7.60397
 21
6.70892
  0
LINE
  8
0
 10
7.60397
 20
6.70892
 11
7.54428
 21
6.63199
  0
LINE
  8
0
 10
7.54428
 20
6.63199
 11
7.47989
 21
6.55894
  0
LINE
  8
0
 10
7.47989
 20
6.55894
 11
7.41104
 21
6.4901
  0
LINE
  8
0
 10
7.41104
 20
6.4901
 11
7.338
 21
6.42569
  0
LINE
  8
0
 10
7.338
 20
6.42569
 11
7.26106
 21
6.36601
  0
LINE
  8
0
 10
7.26106
 20
6.36601
 11
7.18053
 21
6.31128
  0
LINE
  8
0
 10
7.18053
 20
6.31128
 11
7.09671
 21
6.26172
  0
LINE
  8
0
 10
7.09671
 20
6.26172
 11
7.00995
 21
6.21751
  0
LINE
  8
0
 10
7.00995
 20
6.21751
 11
6.92058
 21
6.17883
  0
LINE
  8
0
 10
6.92058
 20
6.17883
 11
6.82896
 21
6.14586
  0
LINE
  8
0
 10
6.82896
 20
6.14586
 11
6.73546
 21
6.11868
  0
LINE
  8
0
 10
6.73546
 20
6.11868
 11
6.64043
 21
6.09744
  0
LINE
  8
0
 10
6.64043
 20
6.09744
 11
6.54427
 21
6.08221
  0
LINE
  8
0
 10
6.54427
 20
6.08221
 11
6.44731
 21
6.07304
  0
LINE
  8
0
 10
6.44731
 20
6.07304
 11
6.34999
 21
6.06999
  0
LINE
  8
0
 10
6.34999
 20
6.06999
 11
6.25267
 21
6.07304
  0
LINE
  8
0
 10
6.25267
 20
-9.16693
 11
6.15573
 21
-9.15778
  0
LINE
  8
0
 10
6.15573
 20
-9.15778
 11
6.05956
 21
-9.14253
  0
LINE
  8
0
 10
6.05956
 20
-9.14253
 11
5.96452
 21
-9.12129
  0
LINE
  8
0
 10
5.96452
 20
-9.12129
 11
5.87102
 21
-9.09413
  0
LINE
  8
0
 10
5.87102
 20
-9.09413
 11
5.7794
 21
-9.06114
  0
LINE
  8
0
 10
5.7794
 20
-9.06114
 11
5.69003
 21
-9.02248
  0
LINE
  8
0
 10
5.69003
 20
-9.02248
 11
5.60327
 21
-8.97827
  0
LINE
  8
0
 10
5.60327
 20
-8.97827
 11
5.51945
 21
-8.9287
  0
LINE
  8
0
 10
5.51945
 20
-8.9287
 11
5.43892
 21
-8.87396
  0
LINE
  8
0
 10
5.43892
 20
-8.87396
 11
5.36198
 21
-8.81429
  0
LINE
  8
0
 10
5.36198
 20
-8.81429
 11
5.28894
 21
-8.74989
  0
LINE
  8
0
 10
5.28894
 20
-8.74989
 11
5.22009
 21
-8.68105
  0
LINE
  8
0
 10
5.22009
 20
-8.68105
 11
5.1557
 21
-8.608
  0
LINE
  8
0
 10
5.1557
 20
-8.608
 11
5.09602
 21
-8.53107
  0
LINE
  8
0
 10
5.09602
 20
-8.53107
 11
5.04129
 21
-8.45053
  0
LINE
  8
0
 10
5.04129
 20
-8.45053
 11
4.99171
 21
-8.36671
  0
LINE
  8
0
 10
4.99171
 20
-8.36671
 11
4.94751
 21
-8.27995
  0
LINE
  8
0
 10
4.94751
 20
-8.27995
 11
4.90884
 21
-8.19058
  0
LINE
  8
0
 10
4.90884
 20
-8.19058
 11
4.87585
 21
-8.09897
  0
LINE
  8
0
 10
4.87585
 20
-8.09897
 11
4.84869
 21
-8.00546
  0
LINE
  8
0
 10
4.84869
 20
-8.00546
 11
4.82745
 21
-7.91043
  0
LINE
  8
0
 10
4.82745
 20
-7.91043
 11
4.81221
 21
-7.81425
  0
LINE
  8
0
 10
4.81221
 20
-7.81425
 11
4.80305
 21
-7.71732
  0
LINE
  8
0
 10
4.80305
 20
-7.71732
 11
4.79999
 21
-7.62
  0
LINE
  8
0
 10
4.79999
 20
-7.62
 11
4.80305
 21
-7.52267
  0
LINE
  8
0
 10
4.80305
 20
-7.52267
 11
4.81221
 21
-7.42572
  0
LINE
  8
0
 10
4.81221
 20
-7.42572
 11
4.82745
 21
-7.32954
  0
LINE
  8
0
 10
4.82745
 20
-7.32954
 11
4.84869
 21
-7.23453
  0
LINE
  8
0
 10
4.84869
 20
-7.23453
 11
4.87585
 21
-7.14102
  0
LINE
  8
0
 10
4.87585
 20
-7.14102
 11
4.90884
 21
-7.04939
  0
LINE
  8
0
 10
4.90884
 20
-7.04939
 11
4.94751
 21
-6.96004
  0
LINE
  8
0
 10
4.94751
 20
-6.96004
 11
4.99171
 21
-6.87328
  0
LINE
  8
0
 10
4.99171
 20
-6.87328
 11
5.04129
 21
-6.78946
  0
LINE
  8
0
 10
5.04129
 20
-6.78946
 11
5.09602
 21
-6.70892
  0
LINE
  8
0
 10
5.09602
 20
-6.70892
 11
5.1557
 21
-6.63199
  0
LINE
  8
0
 10
5.1557
 20
-6.63199
 11
5.22009
 21
-6.55894
  0
LINE
  8
0
 10
5.22009
 20
-6.55894
 11
5.28894
 21
-6.4901
  0
LINE
  8
0
 10
5.28894
 20
-6.4901
 11
5.36198
 21
-6.42569
  0
LINE
  8
0
 10
5.36198
 20
-6.42569
 11
5.43892
 21
-6.36601
  0
LINE
  8
0
 10
5.43892
 20
-6.36601
 11
5.51945
 21
-6.31128
  0
LINE
  8
0
 10
5.51945
 20
-6.31128
 11
5.60327
 21
-6.26172
  0
LINE
  8
0
 10
5.60327
 20
-6.26172
 11
5.69003
 21
-6.21751
  0
LINE
  8
0
 10
5.69003
 20
-6.21751
 11
5.7794
 21
-6.17883
  0
LINE
  8
0
 10
5.7794
 20
-6.17883
 11
5.87102
 21
-6.14586
  0
LINE
  8
0
 10
5.87102
 20
-6.14586
 11
5.96452
 21
-6.11868
  0
LINE
  8
0
 10
5.96452
 20
-6.11868
 11
6.05956
 21
-6.09744
  0
LINE
  8
0
 10
6.05956
 20
-6.09744
 11
6.15573
 21
-6.08221
  0
LINE
  8
0
 10
6.15573
 20
-6.08221
 11
6.25267
 21
-6.07304
  0
LINE
  8
0
 10
6.25267
 20
-6.07304
 11
6.34999
 21
-6.06999
  0
LINE
  8
0
 10
6.34999
 20
-6.06999
 11
6.44731
 21
-6.07304
  0
LINE
  8
0
 10
6.44731
 20
-6.07304
 11
6.54427
 21
-6.08221
  0
LINE
  8
0
 10
6.54427
 20
-6.08221
 11
6.64043
 21
-6.09744
  0
LINE
  8
0
 10
6.64043
 20
-6.09744
 11
6.73546
 21
-6.11868
  0
LINE
  8
0
 10
6.73546
 20
-6.11868
 11
6.82896
 21
-6.14586
  0
LINE
  8
0
 10
6.82896
 20
-6.14586
 11
6.92058
 21
-6.17883
  0
LINE
  8
0
 10
6.92058
 20
-6.17883
 11
7.00995
 21
-6.21751
  0
LINE
  8
0
 10
7.00995
 20
-6.21751
 11
7.09671
 21
-6.26172
  0
LINE
  8
0
 10
7.09671
 20
-6.26172
 11
7.18053
 21
-6.31128
  0
LINE
  8
0
 10
7.18053
 20
-6.31128
 11
7.26106
 21
-6.36601
  0
LINE
  8
0
 10
7.26106
 20
-6.36601
 11
7.338
 21
-6.42569
  0
LINE
  8
0
 10
7.338
 20
-6.42569
 11
7.41104
 21
-6.4901
  0
LINE
  8
0
 10
7.41104
 20
-6.4901
 11
7.47989
 21
-6.55894
  0
LINE
  8
0
 10
7.47989
 20
-6.55894
 11
7.54428
 21
-6.63199
  0
LINE
  8
0
 10
7.54428
 20
-6.63199
 11
7.60397
 21
-6.70892
  0
LINE
  8
0
 10
7.60397
 20
-6.70892
 11
7.65871
 21
-6.78946
  0
LINE
  8
0
 10
7.65871
 20
-6.78946
 11
7.70827
 21
-6.87328
  0
LINE
  8
0
 10
7.70827
 20
-6.87328
 11
7.75247
 21
-6.96004
  0
LINE
  8
0
 10
7.75247
 20
-6.96004
 11
7.79115
 21
-7.04939
  0
LINE
  8
0
 10
7.79115
 20
-7.04939
 11
7.82413
 21
-7.14102
  0
LINE
  8
0
 10
7.82413
 20
-7.14102
 11
7.8513
 21
-7.23453
  0
LINE
  8
0
 10
7.8513
 20
-7.23453
 11
7.87254
 21
-7.32954
  0
LINE
  8
0
 10
7.87254
 20
-7.32954
 11
7.88777
 21
-7.42572
  0
LINE
  8
0
 10
7.88777
 20
-7.42572
 11
7.89693
 21
-7.52267
  0
LINE
  8
0
 10
7.89693
 20
-7.52267
 11
7.89999
 21
-7.62
  0
LINE
  8
0
 10
7.89999
 20
-7.62
 11
7.89693
 21
-7.71732
  0
LINE
  8
0
 10
7.89693
 20
-7.71732
 11
7.88777
 21
-7.81425
  0
LINE
  8
0
 10
7.88777
 20
-7.81425
 11
7.87254
 21
-7.91043
  0
LINE
  8
0
 10
7.87254
 20
-7.91043
 11
7.8513
 21
-8.00546
  0
LINE
  8
0
 10
7.8513
 20
-8.00546
 11
7.82413
 21
-8.09897
  0
LINE
  8
0
 10
7.82413
 20
-8.09897
 11
7.79115
 21
-8.19058
  0
LINE
  8
0
 10
7.79115
 20
-8.19058
 11
7.75247
 21
-8.27995
  0
LINE
  8
0
 10
7.75247
 20
-8.27995
 11
7.70827
 21
-8.36671
  0
LINE
  8
0
 10
7.70827
 20
-8.36671
 11
7.65871
 21
-8.45053
  0
LINE
  8
0
 10
7.65871
 20
-8.45053
 11
7.60397
 21
-8.53107
  0
LINE
  8
0
 10
7.60397
 20
-8.53107
 11
7.54428
 21
-8.608
  0
LINE
  8
0
 10
7.54428
 20
-8.608
 11
7.47989
 21
-8.68105
  0
LINE
  8
0
 10
7.47989
 20
-8.68105
 11
7.41104
 21
-8.74989
  0
LINE
  8
0
 10
7.41104
 20
-8.74989
 11
7.338
 21
-8.81429
  0
LINE
  8
0
 10
7.338
 20
-8.81429
 11
7.26106
 21
-8.87396
  0
LINE
  8
0
 10
7.26106
 20
-8.87396
 11
7.18053
 21
-8.9287
  0
LINE
  8
0
 10
7.18053
 20
-8.9287
 11
7.09671
 21
-8.97827
  0
LINE
  8
0
 10
7.09671
 20
-8.97827
 11
7.00995
 21
-9.02248
  0
LINE
  8
0
 10
7.00995
 20
-9.02248
 11
6.92058
 21
-9.06114
  0
LINE
  8
0
 10
6.92058
 20
-9.06114
 11
6.82896
 21
-9.09413
  0
LINE
  8
0
 10
6.82896
 20
-9.09413
 11
6.73546
 21
-9.12129
  0
LINE
  8
0
 10
6.73546
 20
-9.12129
 11
6.64043
 21
-9.14253
  0
LINE
  8
0
 10
6.64043
 20
-9.14253
 11
6.54427
 21
-9.15778
  0
LINE
  8
0
 10
6.54427
 20
-9.15778
 11
6.44731
 21
-9.16693
  0
LINE
  8
0
 10
6.44731
 20
-9.16693
 11
6.34999
 21
-9.17
  0
LINE
  8
0
 10
6.34999
 20
-9.17
 11
6.25267
 21
-9.16693
  0
LINE
  8
0
 10
-0.0973206
 20
-14.2469
 11
-0.19426
 21
-14.2378
  0
LINE
  8
0
 10
-0.19426
 20
-14.2378
 11
-0.290436
 21
-14.2225
  0
LINE
  8
0
 10
-0.290436
 20
-14.2225
 11
-0.385468
 21
-14.2013
  0
LINE
  8
0
 10
-0.385468
 20
-14.2013
 11
-0.478973
 21
-14.1741
  0
LINE
  8
0
 10
-0.478973
 20
-14.1741
 11
-0.570587
 21
-14.1411
  0
LINE
  8
0
 10
-0.570587
 20
-14.1411
 11
-0.659958
 21
-14.1025
  0
LINE
  8
0
 10
-0.659958
 20
-14.1025
 11
-0.746704
 21
-14.0583
  0
LINE
  8
0
 10
-0.746704
 20
-14.0583
 11
-0.830521
 21
-14.0087
  0
LINE
  8
0
 10
-0.830521
 20
-14.0087
 11
-0.911057
 21
-13.954
  0
LINE
  8
0
 10
-0.911057
 20
-13.954
 11
-0.988007
 21
-13.8943
  0
LINE
  8
0
 10
-0.988007
 20
-13.8943
 11
-1.06104
 21
-13.8299
  0
LINE
  8
0
 10
-1.06104
 20
-13.8299
 11
-1.1299
 21
-13.761
  0
LINE
  8
0
 10
-1.1299
 20
-13.761
 11
-1.19429
 21
-13.688
  0
LINE
  8
0
 10
-1.19429
 20
-13.688
 11
-1.25397
 21
-13.6111
  0
LINE
  8
0
 10
-1.25397
 20
-13.6111
 11
-1.3087
 21
-13.5305
  0
LINE
  8
0
 10
-1.3087
 20
-13.5305
 11
-1.35826
 21
-13.4467
  0
LINE
  8
0
 10
-1.35826
 20
-13.4467
 11
-1.40248
 21
-13.36
  0
LINE
  8
0
 10
-1.40248
 20
-13.36
 11
-1.44115
 21
-13.2706
  0
LINE
  8
0
 10
-1.44115
 20
-13.2706
 11
-1.47414
 21
-13.179
  0
LINE
  8
0
 10
-1.47414
 20
-13.179
 11
-1.5013
 21
-13.0855
  0
LINE
  8
0
 10
-1.5013
 20
-13.0855
 11
-1.52254
 21
-12.9904
  0
LINE
  8
0
 10
-1.52254
 20
-12.9904
 11
-1.53777
 21
-12.8943
  0
LINE
  8
0
 10
-1.53777
 20
-12.8943
 11
-1.54694
 21
-12.7973
  0
LINE
  8
0
 10
-1.54694
 20
-12.7973
 11
-1.54999
 21
-12.7
  0
LINE
  8
0
 10
-1.54999
 20
-12.7
 11
-1.54694
 21
-12.6027
  0
LINE
  8
0
 10
-1.54694
 20
-12.6027
 11
-1.53777
 21
-12.5057
  0
LINE
  8
0
 10
-1.53777
 20
-12.5057
 11
-1.52254
 21
-12.4095
  0
LINE
  8
0
 10
-1.52254
 20
-12.4095
 11
-1.5013
 21
-12.3145
  0
LINE
  8
0
 10
-1.5013
 20
-12.3145
 11
-1.47414
 21
-12.221
  0
LINE
  8
0
 10
-1.47414
 20
-12.221
 11
-1.44115
 21
-12.1294
  0
LINE
  8
0
 10
-1.44115
 20
-12.1294
 11
-1.40248
 21
-12.04
  0
LINE
  8
0
 10
-1.40248
 20
-12.04
 11
-1.35826
 21
-11.9533
  0
LINE
  8
0
 10
-1.35826
 20
-11.9533
 11
-1.3087
 21
-11.8695
  0
LINE
  8
0
 10
-1.3087
 20
-11.8695
 11
-1.25397
 21
-11.7889
  0
LINE
  8
0
 10
-1.25397
 20
-11.7889
 11
-1.19429
 21
-11.712
  0
LINE
  8
0
 10
-1.19429
 20
-11.712
 11
-1.1299
 21
-11.6389
  0
LINE
  8
0
 10
-1.1299
 20
-11.6389
 11
-1.06104
 21
-11.5701
  0
LINE
  8
0
 10
-1.06104
 20
-11.5701
 11
-0.988007
 21
-11.5057
  0
LINE
  8
0
 10
-0.988007
 20
-11.5057
 11
-0.911057
 21
-11.446
  0
LINE
  8
0
 10
-0.911057
 20
-11.446
 11
-0.830521
 21
-11.3913
  0
LINE
  8
0
 10
-0.830521
 20
-11.3913
 11
-0.746704
 21
-11.3417
  0
LINE
  8
0
 10
-0.746704
 20
-11.3417
 11
-0.659958
 21
-11.2975
  0
LINE
  8
0
 10
-0.659958
 20
-11.2975
 11
-0.570587
 21
-11.2588
  0
LINE
  8
0
 10
-0.570587
 20
-11.2588
 11
-0.478973
 21
-11.2259
  0
LINE
  8
0
 10
-0.478973
 20
-11.2259
 11
-0.385468
 21
-11.1987
  0
LINE
  8
0
 10
-0.385468
 20
-11.1987
 11
-0.290436
 21
-11.1774
  0
LINE
  8
0
 10
-0.290436
 20
-11.1774
 11
-0.19426
 21
-11.1622
  0
LINE
  8
0
 10
-0.19426
 20
-11.1622
 11
-0.0973206
 21
-11.153
  0
LINE
  8
0
 10
-0.0973206
 20
-11.153
 11
0
 21
-11.15
  0
LINE
  8
0
 10
0
 20
-11.15
 11
0.0973206
 21
-11.153
  0
LINE
  8
0
 10
0.0973206
 20
-11.153
 11
0.19426
 21
-11.1622
  0
LINE
  8
0
 10
0.19426
 20
-11.1622
 11
0.290436
 21
-11.1774
  0
LINE
  8
0
 10
0.290436
 20
-11.1774
 11
0.385468
 21
-11.1987
  0
LINE
  8
0
 10
0.385468
 20
-11.1987
 11
0.478973
 21
-11.2259
  0
LINE
  8
0
 10
0.478973
 20
-11.2259
 11
0.570587
 21
-11.2588
  0
LINE
  8
0
 10
0.570587
 20
-11.2588
 11
0.659958
 21
-11.2975
  0
LINE
  8
0
 10
0.659958
 20
-11.2975
 11
0.746704
 21
-11.3417
  0
LINE
  8
0
 10
0.746704
 20
-11.3417
 11
0.830521
 21
-11.3913
  0
LINE
  8
0
 10
0.830521
 20
-11.3913
 11
0.911057
 21
-11.446
  0
LINE
  8
0
 10
0.911057
 20
-11.446
 11
0.988007
 21
-11.5057
  0
LINE
  8
0
 10
0.988007
 20
-11.5057
 11
1.06104
 21
-11.5701
  0
LINE
  8
0
 10
1.06104
 20
-11.5701
 11
1.1299
 21
-11.6389
  0
LINE
  8
0
 10
1.1299
 20
-11.6389
 11
1.19429
 21
-11.712
  0
LINE
  8
0
 10
1.19429
 20
-11.712
 11
1.25397
 21
-11.7889
  0
LINE
  8
0
 10
1.25397
 20
-11.7889
 11
1.3087
 21
-11.8695
  0
LINE
  8
0
 10
1.3087
 20
-11.8695
 11
1.35826
 21
-11.9533
  0
LINE
  8
0
 10
1.35826
 20
-11.9533
 11
1.40248
 21
-12.04
  0
LINE
  8
0
 10
1.40248
 20
-12.04
 11
1.44115
 21
-12.1294
  0
LINE
  8
0
 10
1.44115
 20
-12.1294
 11
1.47414
 21
-12.221
  0
LINE
  8
0
 10
1.47414
 20
-12.221
 11
1.5013
 21
-12.3145
  0
LINE
  8
0
 10
1.5013
 20
-12.3145
 11
1.52254
 21
-12.4095
  0
LINE
  8
0
 10
1.52254
 20
-12.4095
 11
1.53777
 21
-12.5057
  0
LINE
  8
0
 10
1.53777
 20
-12.5057
 11
1.54694
 21
-12.6027
  0
LINE
  8
0
 10
1.54694
 20
-12.6027
 11
1.54999
 21
-12.7
  0
LINE
  8
0
 10
1.54999
 20
-12.7
 11
1.54694
 21
-12.7973
  0
LINE
  8
0
 10
1.54694
 20
-12.7973
 11
1.53777
 21
-12.8943
  0
LINE
  8
0
 10
1.53777
 20
-12.8943
 11
1.52254
 21
-12.9904
  0
LINE
  8
0
 10
1.52254
 20
-12.9904
 11
1.5013
 21
-13.0855
  0
LINE
  8
0
 10
1.5013
 20
-13.0855
 11
1.47414
 21
-13.179
  0
LINE
  8
0
 10
1.47414
 20
-13.179
 11
1.44115
 21
-13.2706
  0
LINE
  8
0
 10
1.44115
 20
-13.2706
 11
1.40248
 21
-13.36
  0
LINE
  8
0
 10
1.40248
 20
-13.36
 11
1.35826
 21
-13.4467
  0
LINE
  8
0
 10
1.35826
 20
-13.4467
 11
1.3087
 21
-13.5305
  0
LINE
  8
0
 10
1.3087
 20
-13.5305
 11
1.25397
 21
-13.6111
  0
LINE
  8
0
 10
1.25397
 20
-13.6111
 11
1.19429
 21
-13.688
  0
LINE
  8
0
 10
1.19429
 20
-13.688
 11
1.1299
 21
-13.761
  0
LINE
  8
0
 10
1.1299
 20
-13.761
 11
1.06104
 21
-13.8299
  0
LINE
  8
0
 10
1.06104
 20
-13.8299
 11
0.988007
 21
-13.8943
  0
LINE
  8
0
 10
0.988007
 20
-13.8943
 11
0.911057
 21
-13.954
  0
LINE
  8
0
 10
0.911057
 20
-13.954
 11
0.830521
 21
-14.0087
  0
LINE
  8
0
 10
0.830521
 20
-14.0087
 11
0.746704
 21
-14.0583
  0
LINE
  8
0
 10
0.746704
 20
-14.0583
 11
0.659958
 21
-14.1025
  0
LINE
  8
0
 10
0.659958
 20
-14.1025
 11
0.570587
 21
-14.1411
  0
LINE
  8
0
 10
0.570587
 20
-14.1411
 11
0.478973
 21
-14.1741
  0
LINE
  8
0
 10
0.478973
 20
-14.1741
 11
0.385468
 21
-14.2013
  0
LINE
  8
0
 10
0.385468
 20
-14.2013
 11
0.290436
 21
-14.2225
  0
LINE
  8
0
 10
0.290436
 20
-14.2225
 11
0.19426
 21
-14.2378
  0
LINE
  8
0
 10
0.19426
 20
-14.2378
 11
0.0973206
 21
-14.2469
  0
LINE
  8
0
 10
0.0973206
 20
-14.2469
 11
0
 21
-14.25
  0
LINE
  8
0
 10
0
 20
-14.25
 11
-0.0973206
 21
-14.2469
  0
ENDSEC
  0
SECTION
  2
OBJECTS
  0
DICTIONARY
  0
ENDSEC
  0
EOF
